<svg xmlns="http://www.w3.org/2000/svg" version="1.1" xmlns:xlink="http://www.w3.org/1999/xlink" width="512" height="512" x="0" y="0" viewBox="0 0 512 512" style="enable-background:new 0 0 512 512" xml:space="preserve"><g><path d="m375.251 324.267 47.582-12.928c9.361-1.877 18.475 4.19 20.352 13.559.222 1.118.341 2.261.333 3.396a17.29 17.29 0 0 1-12.544 16.623l-62.123 16.324-20.625 36.267 90.035-21.487c23.057-5.316 39.39-25.847 39.39-49.51 0-28.066-22.758-50.816-50.816-50.816-5.461 0-10.889.879-16.068 2.611l-35.516 11.827v34.134zM33.918 452.267h392.533c0 28.279-22.921 51.2-51.2 51.2H85.118c-28.28 0-51.2-22.921-51.2-51.2z" style="" fill="#D65245" data-original="#d65245"></path><path d="M59.518 256v25.6c-.017 70.63 37.948 135.825 99.388 170.667h142.558c61.44-34.842 99.405-100.036 99.388-170.667V256H59.518z" style="" fill="#E8594A" data-original="#e8594a"></path><path d="M315.518 256v25.6c.017 70.63-37.948 135.825-99.388 170.667h85.333c61.44-34.842 99.405-100.036 99.388-170.667V256h-85.333z" style="" fill="#D65245" data-original="#d65245"></path><path d="M341.118 0v8.533c0 18.85 15.283 34.133 34.133 34.133h4.267c30.635 0 55.467 24.832 55.467 55.467 0 30.635-24.832 55.467-55.467 55.467h-38.4c-11.785 0-21.333 9.549-21.333 21.333 0 11.785 9.549 21.333 21.333 21.333 18.85 0 34.133 15.283 34.133 34.133H85.118c0-56.55 45.85-102.4 102.4-102.4h93.867c18.85 0 34.133-15.283 34.133-34.133s-15.283-34.133-34.133-34.133S247.252 44.45 247.252 25.6V0h93.866z" style="" fill="#F0E4D6" data-original="#f0e4d6"></path><path d="M130.984 390.665c-25.139-20.122-36.361-50.842-41.335-73.062l16.649-3.738c4.386 19.558 14.071 46.447 35.354 63.471l-10.668 13.329zM86.509 299.75a157.368 157.368 0 0 1-1.391-18.15h17.067c.119 5.35.538 10.692 1.254 15.991l-16.93 2.159z" style="" fill="#F77A6D" data-original="#f77a6d"></path><path d="m371.266 400.213 68.907-15.906c31.983-7.125 52.13-38.818 45.013-70.801-7.125-31.983-38.818-52.13-70.801-45.013-1.69.375-3.354.828-5.001 1.348V256a8.536 8.536 0 0 0-8.533-8.533H59.518A8.536 8.536 0 0 0 50.985 256v25.6a205.293 205.293 0 0 0 79.829 162.133H33.918a8.536 8.536 0 0 0-8.533 8.533c.043 32.973 26.761 59.691 59.733 59.733h290.133c32.973-.043 59.691-26.761 59.733-59.733a8.536 8.536 0 0 0-8.533-8.533h-96.896a205.483 205.483 0 0 0 41.711-43.52zm33.69-76.638 19.541-3.908c4.727-1.007 9.378 2.005 10.385 6.733a8.765 8.765 0 0 1-6.246 10.274l-29.5 8.431a203.38 203.38 0 0 0 5.82-21.495v-.035zm46.6-31.411c18.944 13.662 23.228 40.09 9.574 59.034a42.336 42.336 0 0 1-24.789 16.478L384.1 379.733a206.884 206.884 0 0 0 7.287-14.66l41.941-11.989c13.722-3.891 21.683-18.167 17.792-31.889-3.686-12.979-16.734-20.932-29.961-18.261l-13.286 2.654c.708-5.879 1.118-11.819 1.297-17.801l4.267-1.425a41.867 41.867 0 0 1 38.118 5.837v-.035zm-76.305 202.769H85.118c-20.267-.026-37.734-14.276-41.813-34.133h373.76c-4.08 19.857-21.547 34.108-41.814 34.133zm-76.075-51.2H161.192c-57.591-33.715-93.03-95.403-93.141-162.133v-17.067h324.267V281.6c-.111 66.731-35.55 128.418-93.142 162.133zM76.584 230.4h17.067c.06-51.814 42.052-93.807 93.867-93.867h93.867c23.561 0 42.667-19.106 42.667-42.667S304.945 51.2 281.384 51.2c-14.14 0-25.6-11.46-25.6-25.6V0h-17.067v25.6c.026 23.552 19.115 42.641 42.667 42.667 14.14 0 25.6 11.46 25.6 25.6s-11.46 25.6-25.6 25.6h-93.867c-61.234.068-110.864 49.698-110.933 110.933z" fill="#000000" opacity="1" data-original="#000000"></path><path d="M341.118 162.133h38.4c35.345 0 64-28.655 64-64s-28.655-64-64-64h-4.267c-14.14 0-25.6-11.46-25.6-25.6V0h-17.067v8.533c0 23.561 19.106 42.667 42.667 42.667h4.267c25.924 0 46.933 21.009 46.933 46.933s-21.009 46.933-46.933 46.933h-38.4c-16.495 0-29.867 13.372-29.867 29.867s13.372 29.867 29.867 29.867c14.14 0 25.6 11.46 25.6 25.6h17.067c-.026-23.552-19.115-42.641-42.667-42.667-7.066 0-12.8-5.734-12.8-12.8 0-7.065 5.726-12.8 12.8-12.8zM106.297 313.865l-16.649 3.738c4.975 22.187 16.213 52.907 41.335 73.062l10.667-13.329c-21.281-17.025-30.932-43.913-35.353-63.471zM102.184 281.6H85.118a157.35 157.35 0 0 0 1.391 18.15l16.93-2.167a143.108 143.108 0 0 1-1.255-15.983z" fill="#000000" opacity="1" data-original="#000000"></path></g></svg>