<svg xmlns="http://www.w3.org/2000/svg" version="1.1" xmlns:xlink="http://www.w3.org/1999/xlink" width="512" height="512" x="0" y="0" viewBox="0 0 316.684 316.684" style="enable-background:new 0 0 512 512" xml:space="preserve"><g><path d="M172.735 281.695c34.59-55.592 120.089-193 127.542-204.982 9.366-15.053-1.266-25.959-7.843-29.393-40.11-20.936-85.714-32.781-134.092-32.781S64.361 26.385 24.25 47.32c-6.578 3.434-17.209 14.34-7.843 29.393 7.454 11.982 92.953 149.391 127.543 204.982 8.869 14.256 19.915 14.256 28.785 0z" style="" fill="#D9A460" data-original="#d9a460"></path><path d="M35.201 72.355c11.42 11.42 42.293 23.781 53.712 12.361 11.418-11.418-.943-42.293-12.362-53.711-11.418-11.418-29.931-11.418-41.35 0-11.417 11.419-11.417 29.932 0 41.35z" style="" fill="#E94F3D" data-original="#e94f3d"></path><path d="M43.603 39.408c6.42-6.42 16.864-6.42 23.283 0 3.501 3.5 8.513 11.527 11.247 20.877 2.534 8.67 1.515 13.459.661 14.313-.853.854-5.642 1.873-14.312-.662-9.35-2.732-17.376-7.744-20.878-11.246-6.419-6.421-6.419-16.864-.001-23.282z" style="" fill="#F47660" data-original="#f47660"></path><path d="M288.477 63.809c-.001-16.15-13.09-46.721-29.239-46.723C243.091 17.086 230 47.66 230 63.809s13.091 29.238 29.239 29.238c16.147 0 29.238-13.092 29.238-29.238z" style="" fill="#E94F3D" data-original="#e94f3d"></path><path d="M259.238 81.164c-9.078 0-16.463-7.385-16.463-16.463 0-4.951 2.131-14.172 6.81-22.715 4.338-7.922 8.446-10.59 9.653-10.59s5.313 2.668 9.652 10.59c4.679 8.543 6.81 17.764 6.811 22.715 0 9.078-7.386 16.463-16.463 16.463z" style="" fill="#F47660" data-original="#f47660"></path><path d="M172.836 58.254c11.419-11.42 23.781-42.293 12.362-53.713-11.418-11.418-42.292.943-53.712 12.363-11.418 11.418-11.418 29.932.001 41.35 11.417 11.418 29.931 11.416 41.349 0z" style="" fill="#E94F3D" data-original="#e94f3d"></path><path d="M139.888 49.852c-6.419-6.418-6.419-16.863.001-23.283 3.501-3.5 11.527-8.514 20.876-11.246 8.669-2.533 13.46-1.516 14.313-.662.854.854 1.872 5.645-.663 14.313-2.731 9.35-7.744 17.377-11.246 20.879-6.418 6.416-16.863 6.416-23.281-.001z" style="" fill="#F47660" data-original="#f47660"></path><path d="M172.735 305.992c34.59-55.592 120.089-193 127.542-204.982 9.366-15.053-1.266-25.959-7.843-29.393-40.11-20.936-85.714-32.781-134.092-32.781S64.361 50.682 24.25 71.617c-6.578 3.434-17.209 14.34-7.843 29.393 7.454 11.982 92.953 149.391 127.543 204.982 8.869 14.256 19.915 14.256 28.785 0z" style="" fill="#F2D383" data-original="#f2d383"></path><path d="M130.92 27.5c-6.449 0-12.218 2.867-16.139 7.381-.198-.005-.392-.029-.591-.029-3.034 0-5.916.641-8.531 1.779-3.868-5.516-10.262-9.131-17.511-9.131-9.528 0-17.593 6.234-20.358 14.843-.343-.017-.681-.052-1.028-.052-11.812 0-21.386 9.572-21.386 21.385 0 11.811 9.575 21.387 21.386 21.387 9.527 0 17.591-6.234 20.357-14.843.343.017.682.052 1.029.052 3.034 0 5.916-.641 8.531-1.779 3.868 5.516 10.263 9.131 17.511 9.131 6.449 0 12.217-2.867 16.138-7.381.198.005.392.029.592.029 11.811 0 21.386-9.574 21.386-21.387-.001-11.811-9.575-21.385-21.386-21.385zM270.89 56.548c-2.792-8.563-10.831-14.755-20.326-14.755-3.304 0-6.419.771-9.212 2.107-3.824-3.582-8.95-5.791-14.603-5.791-.572 0-1.133.041-1.693.086-3.253-7.662-10.845-13.035-19.693-13.035-11.812 0-21.386 9.572-21.386 21.385 0 11.811 9.574 21.387 21.386 21.387.572 0 1.133-.041 1.694-.086 3.253 7.662 10.844 13.035 19.692 13.035 3.304 0 6.42-.771 9.213-2.109a21.29 21.29 0 0 0 10.804 5.435c2.792 8.563 10.83 14.757 20.325 14.757 11.811 0 21.386-9.576 21.386-21.387 0-10.515-7.591-19.234-17.587-21.029z" style="" fill="#FFFFFF" data-original="#ffffff"></path><path d="M151.973 295.598a9.71 9.71 0 0 1-8.487-4.969c-5.197-9.275-6.452-17.205-3.836-24.244 4.027-10.83 15.677-15.059 25.957-18.789 13.037-4.732 19.203-7.693 19.428-14.385.081-2.408-.594-3.098-.919-3.428-4.53-4.625-22.672-4.381-35.921-4.207-12.817.174-26.075.35-36.77-2.324-10.497-2.623-23.101-9.336-23.539-26.414-.203-7.928 2.442-14.85 7.649-20.02 13.655-13.551 42.183-12.602 72.388-11.6 27.792.928 62.377 2.074 65.344-11.947.72-3.4-.131-4.346-.453-4.699-1.329-1.473-6.486-4.9-25.614-4.93-.084-.002-.17-.002-.254-.002-14.746 0-33.307 1.99-51.263 3.914-48.734 5.221-90.821 9.729-99.624-15.146-3.327-9.4-1.497-18.686 5.152-26.141 12.464-13.977 43.137-22.588 91.167-25.594 37.535-2.346 74.689-.367 88.925 2.902a9.716 9.716 0 0 1 7.296 11.646c-1.202 5.23-6.414 8.5-11.647 7.297-10.987-2.523-46.069-4.779-83.36-2.445-59.764 3.738-74.716 15.588-77.874 19.129-1.963 2.201-2.312 3.961-1.334 6.721.324.918 2.943 5.531 22.652 6.172 15.718.512 36.488-1.715 56.577-3.869 42.575-4.561 79.345-8.5 93.629 7.318 3.565 3.949 7.334 10.928 5.042 21.754-2.968 14.02-14.47 22.795-34.185 26.076-14.813 2.467-33.119 1.859-50.82 1.27-22.431-.744-50.349-1.672-58.05 5.971-.993.984-1.996 2.436-1.911 5.725.18 7.006 6.298 10.254 40.62 9.801 20.42-.27 39.71-.527 50.063 10.039 3.113 3.176 6.761 8.824 6.461 17.688-.692 20.555-19.667 27.441-32.223 31.998-5.041 1.83-13.477 4.893-14.37 7.295-.281.752-.054 3.279 2.573 7.967 2.624 4.682.955 10.605-3.728 13.23a9.677 9.677 0 0 1-4.741 1.24z" style="" fill="#5A3C3D" data-original="#5a3c3d"></path></g></svg>