<svg xmlns="http://www.w3.org/2000/svg" version="1.1" xmlns:xlink="http://www.w3.org/1999/xlink" width="512" height="512" x="0" y="0" viewBox="0 0 64 64" style="enable-background:new 0 0 512 512" xml:space="preserve"><g><path fill="#A06271" d="M28.59 62h9.59a2 2 0 0 0 1.96-1.61l2.49-12.43z" opacity="1" data-original="#a06271"></path><path fill="#8C4553" d="m23.74 59.84.11.56c.19.93 1.01 1.6 1.96 1.6h5.6l10.51-10.51 2.46-12.29z" opacity="1" data-original="#8c4553"></path><path fill="#A06271" d="m19.78 40 2.11 10.53L32.41 40z" opacity="1" data-original="#a06271"></path><path fill="#8C4553" d="m29.59 40-8.18 8.17 1.65 8.19L39.41 40z" opacity="1" data-original="#8c4553"></path><path fill="#773545" d="M36.59 40 22.58 54l1.16 5.84L43.59 40z" opacity="1" data-original="#773545"></path><path fill="#A454E2" d="M46.43 32.97c-.74-.5-1.64-.97-3.09-.97-1.74 0-2.67.66-3.42 1.18-.67.47-1.16.82-2.25.82s-1.58-.34-2.25-.82c-.75-.53-1.67-1.18-3.41-1.18s-2.66.66-3.41 1.18c-.67.48-1.16.82-2.26.82s-1.58-.34-2.25-.82c-.75-.53-1.68-1.18-3.42-1.18-1.46 0-2.35.46-3.09.96h-.01c-.34.16-.57.51-.57.9v4.13c0 2.21 1.79 4 4 4h22c2.21 0 4-1.79 4-4v-4.13c0-.39-.23-.74-.57-.9z" opacity="1" data-original="#a454e2"></path><path fill="#C983FF" d="M32 2c-4.81 0-9.33 1.87-12.73 5.27S14 15.19 14 20v7c0 .55.45 1 1 1 1.74 0 2.67-.66 3.42-1.18.67-.47 1.16-.82 2.25-.82s1.59.34 2.26.82c.75.53 1.67 1.18 3.41 1.18s2.67-.66 3.42-1.18c.67-.47 1.16-.82 2.25-.82s1.58.34 2.25.82c.75.53 1.67 1.18 3.41 1.18s2.66-.66 3.41-1.18c.67-.48 1.16-.82 2.26-.82s1.58.34 2.25.82c.75.53 1.67 1.18 3.41 1.18.55 0 1-.45 1-1v-7c0-9.93-8.07-18-18-18z" opacity="1" data-original="#c983ff"></path><path fill="#BA66F2" d="M49 26c-1.1 0-1.58-.34-2.25-.82C46 24.65 45.08 24 43.34 24s-2.67.66-3.42 1.18c-.67.47-1.16.82-2.25.82s-1.58-.34-2.25-.82c-.75-.53-1.67-1.18-3.41-1.18s-2.66.66-3.41 1.18c-.67.48-1.16.82-2.26.82s-1.58-.34-2.25-.82c-.75-.53-1.68-1.18-3.42-1.18s-2.66.66-3.41 1.18c-.67.48-1.16.82-2.26.82-.55 0-1 .45-1 1v5.15c0 1.1.57 2.08 1.53 2.62.92.52 2 .52 2.91 0 .08-.03.12-.06.12-.07.04-.02.08-.04.12-.07.51-.35 1.01-.64 2-.64 1.1 0 1.59.34 2.26.82.75.53 1.67 1.18 3.41 1.18s2.67-.66 3.42-1.18c.67-.47 1.16-.82 2.25-.82s1.58.34 2.25.82c.75.53 1.67 1.18 3.41 1.18s2.66-.66 3.41-1.18c.67-.48 1.16-.82 2.26-.82.98 0 1.48.29 2.04.67.04.02.08.05.13.07.91.54 2.01.55 2.95.02.96-.54 1.54-1.52 1.54-2.63v-5.14c0-.55-.45-1-1-1z" opacity="1" data-original="#ba66f2"></path></g></svg>