<svg xmlns="http://www.w3.org/2000/svg" version="1.1" xmlns:xlink="http://www.w3.org/1999/xlink" width="512" height="512" x="0" y="0" viewBox="0 0 512.001 512.001" style="enable-background:new 0 0 512 512" xml:space="preserve"><g><path d="M214.331 105.442a514.972 514.972 0 0 0-12.661 5.727c-20.066 9.361-41.186 25.35-51.165 45.481-7.806 15.748-13.376 36.204-9.163 53.818 1.682 7.032 3.862 9.45-3.616 13.126-10.241 5.035-31.444 11.806-19.355 26.426 5.096 6.163 13.38 5.318 20.191 8.198 2.34 7.086 1.624 16.489 2.319 24.149 1.242 13.699 1.022 27.514 1.622 41.246 1.067 24.416 4.798 48.834 5.034 73.299.212 22.033 2.013 43.436 6.176 65.075 1.512 7.859 3.387 17.343 9.394 22.849 6.58 6.032 17.396 10.171 25.774 12.804 32.998 10.368 63.886 5.917 97.557 3.633 16.634-1.129 43.244 1.487 57.34-9.076 6.013-4.506 7.478-12.853 9.903-19.979 7.076-20.797 5.44-44.401 7.109-65.99 1.692-21.877 3.794-44.311 3.974-66.188.125-15.264 1.787-30.65.633-45.795-.785-10.31-4.609-30.58.495-40.301 2.385-4.544 2.043-2.511 6.249-3.248 5.191-.909 9.6-1.402 14.081-5.273 4.917-4.247 10.058-11.076 8.48-17.713-2.662-11.199-16.83-7.907-24.834-10.2.587.168 5.372-22.538 5.472-23.927.724-10.026-1.625-19.917-5.055-29.273-5.333-14.549-14.495-26.053-23.854-38.228-8.978-11.68-23.59-19.107-36.518-25.936-32.316-17.072-64.429-8.227-95.582 5.296z" style="" fill="#FFFFFF" data-original="#ffffff"></path><path d="M140.571 212.511c-6.616-2.581-6.291-21.826-5.672-29.028 1.93-22.455 22.144-44.434 38.82-57.844 11.195-9.002 23.886-19.076 37.216-24.687 8.538-3.594 22.762-8.543 32.136-5.495 3.114 7.078-5.091 17.929-9.648 22.956-9.957 10.982-28.744 11.277-40.861 20.313-13.468 10.042-31.69 31.125-31.133 49.116.295 9.531 2.472 18.777 1.832 28.356-2.489 1.222-5.408 2.409-8.222 2.991-16.626 3.443-15.414-7.918-18.9-20.612M118.405 242.277c22.029 1.587 45.438-3.796 67.716-3.8 37.205-.006 74.362-3.244 111.525-3.164 27.076.058 54.082-.22 81.052-1.41 4.862-.215 15.239-2.615 16.325 4.082 2.085 12.85-70.402 13.083-79.79 13.95-23.794 2.196-48.113 3.069-72.008 3.009-21.504-.054-42.885 2.403-64.295 3.181-14.978.544-31.978 2.396-46.62.757-10.666-1.194-14.893-6.487-13.905-16.605z" style="" fill="#EDEAF2" data-original="#edeaf2"></path><path d="M140.571 295.475c-.02 21.999-.422 43.856.031 65.9.405 19.719-1.309 38.814 2.329 58.368 3.131 16.83 6.29 33.269 11.239 49.599 5.018 16.557 20.381 23.108 35.345 29.441 7.712 3.264 16.001 5.93 24.228 7.489 9.117 1.728 17.776-.699 26.917-1.117 11.382-.52 22.808.625 34.176-.18 7.51-.532 48.649-.058 50.721-11.306 1.343-7.29-32.518-1.72-37.597-1.234-9.329.892-18.787.854-28.137 1.281-9.309.425-17.76-4.277-26.897-4.736-11.866-.597-21.361-3.868-31.562-10.115-11.911-7.294-22.609-13.311-27.084-27.594-6.738-21.503-5.766-47.122-7.077-69.463-1.228-20.933-2.558-41.937-5.273-62.564-2.411-18.314-3.809-36.243-5.512-54.65-.736-7.957-3.118-7.563-10.397-6.627-2.139.275-6.398.07-7.891 2.128-1.485 2.047.401 10.039.635 11.829 1.407 10.736 3.265 21.558 1.806 23.551z" style="" fill="#EDEAF2" data-original="#edeaf2"></path><path d="M164.003 220.744c1.39-11.678-3.193-19.435 5.099-29.781 6.217-7.756 22.103-8.359 24.632-16.311 2.149-6.755-1.234-10.687 4.592-16.748 7.517-7.82 17.689-12.38 28.531-10.18 4.257.863 4.628 2.117 8.236.992 5.661-1.765 10.204-8.433 16.937-9.854 12.582-2.655 18.494 5.839 27.391 12.09 7.9 5.551 16.121-5.607 26.953-2.248 7.259 2.251 16.68 9.167 18.601 16.845 9.986-1.146 16.604 1.763 22.593 10.689 3.341 4.98 4.272 11.458 3.926 17.371-.26 4.444-.499 17.798-3.642 21.46-3.671 4.276-15.759 2.397-21.019 2.476-26.015.39-52.003 1.337-77.994 1.898-27.3.589-54.633 1.422-84.836 1.301zM158.304 297.375c4.772 9.378 3.361 23.1 4.415 33.425 1.158 11.341 3.512 22.693 4.927 34.147 1.422 11.516 3.115 22.879 3.956 34.387.926 12.677 1.392 26.022 3.028 38.667.658 5.084.477 10.188 1.548 15.169 2.322 10.796 6.962 17.655 15.833 23.907 27.198 19.169 68.528 8.004 99.444 7.759 12.581-.1 26.491-.786 37.859-6.49 10.387-5.211 13.177-12.55 14.692-23.894 1.841-13.776-1.312-26.457-1.979-40.057-.494-10.07.75-20.255-.063-30.572-.591-7.504-2.561-15.815-2.335-23.271.211-6.971 2.85-14.152 3.563-21.147 1.462-14.338 3.76-28.672 3.106-43.131-.368-8.14.587-14.4 2.073-22.522.857-4.688 3.668-14.512-.06-18.649-1.635-1.811-6.344-.749-8.288-.78-7.789-.124-15.59-.533-23.385-.789-32.282-1.058-62.542 2.439-94.301 5.823-21.774 2.32-43.368 1.489-65.202 2.647.676 10.836 2.435 21.664 1.169 35.371z" style="" fill="#F74F68" data-original="#f74f68"></path><path d="M341.965 218.211c2.705-30.118-45.993-30.557-64.47-29.907-11.704.412-26.948 2.072-37.678-3.473-9.202-4.756-9.51-11.452-11.357-20.326-2.201-10.574-10.925-15.727-21.457-12.161-12.664 4.287-12.205 17.432-15.119 28.262-8.88-4.981-19.93 4.955-24.095 12.199-3.355 5.834-4.233 11.67-3.308 18.505 1.18 8.712 2.071 9.061 10.424 9.726 33.427 2.663 67.494-.061 101.067.94 14.301.426 28.609.871 42.915.068 7.028-.395 19.26.767 23.078-3.833zM348.932 266.976c-54.789 1.305-108.451 45.712-114.328 100.883-2.854 26.794-4.039 53.751-.297 80.462.961 6.857 4.96 26.344-2.536 31.519-1.745 1.205-8.65.846-11.369 1.164-5.386.629-10.553-.06-15.799-1.605-7.656-2.254-14.742-8.041-20.968-12.962-17.796-14.065-12.838-54.331-13.916-74.87-1.336-25.456-5.683-49.924-8.864-75.078-1.273-10.07-1.58-20.122-3.043-30.022-.913-6.175.504-19.281-3.259-23.782 12.212-4.373 26.727-5.634 39.571-5.212 26.528.872 52.738-2.18 79.233-3.132 19.72-.709 39.386-1.381 59.077-1.933 3.002-.084 11.917-1.484 14.596.002 4.75 2.638 1.21 9.105 1.902 14.566z" style="" fill="#E03253" data-original="#e03253"></path><path d="M305.233 147.881c-5.317-.345-8.279 3.524-10.736 7.801-4.073 7.09-8.293 13.585-13.89 19.693-7.315 7.981-15.759 12.22-25.431 4.754-4.668-3.603-8.782-8.521-14.662-10.21-14.243-4.093-22.27 12.185-32.496 18.586-4.9 3.067-10.006 2.607-15.068.212-1.689-.799-3.53-2.533-5.389-3.198a11.331 11.331 0 0 0-.493-1.15c-1.44-2.892-5.641-3.142-7.78-1.002a5.11 5.11 0 0 0-1.451 3.503c0 1.896 1.007 3.203 2.453 4.277 1.117.829 2.446.939 3.748.719 4.749 5.747 16.754 9.17 22.213 8.926 6.604-.295 11.952-4.214 16.686-8.522 3.079-2.801 5.737-6.617 9.301-8.804 4.86-2.983 7.379-.579 11.38 2.638 3.072 2.47 6.223 4.69 9.463 6.455.249.738.689 1.464 1.419 2.132 7.951 7.274 15.085 5.589 21.306.229a29.289 29.289 0 0 0 3.783-1.724c7.358-4.049 12.386-10.507 16.82-17.456 3.202-5.018 6.369-16.079 11.159-19.24 3.906-2.581 2.282-8.32-2.335-8.619zM337.734 362.587c-.95-1.846-2.874-2.503-4.864-2.095-1.001.206-1.777.743-2.509 1.337-1.16-.455-2.326-.89-3.475-1.369a12.651 12.651 0 0 0-2.573-1.113c-.961-.288-1.842-.267-2.618-.033a28.095 28.095 0 0 0-1.364-1.995c-.127-.168-.287-.295-.443-.427a55.577 55.577 0 0 0-.517-3.738c3.851-7.757 1.257-19.979-6.575-23.832-5.429-2.67-11.589.102-17.194.4-8.602.457-14.786-4.126-21.026-9.358.161-5.01-1.034-10.667-1.538-14.571-.938-7.267-2.903-13.475-8.875-18.045a2.774 2.774 0 0 0-1.114-.512c-.549-1.224-1.498-2.288-2.688-2.777-12.437-5.112-26.917-2.522-39.937-2.488-12.753.034-25.027-4.285-37.516-5.439-7.247-3.598-11.677-9.579-17.913-14.667-2.292-1.869-5.091.403-3.963 3.058 6.173 14.539 29.888 27.994 45.402 27.367a4.969 4.969 0 0 0 1.555-.316c8.445 1.544 17.571 1.361 25.816 2.253 5.473.592 11.081 1.021 16.26 3.039 2.889 1.126 4.91 2.871 6.892 4.647.141 1.496 1.113 3.06 2.649 3.279.077.011.121.014.167.017-.081.044.257.363.134.083.387.882.652 1.228.927 2.133a50.476 50.476 0 0 0 1.904 5.242c.122.287.296.528.506.728.22 1.582.429 3.173.645 4.768.115 1.653.317 3.32.739 4.874 1.218 6.947 3.286 13.521 8.688 18.301 7.367 6.518 22.583 5.237 31.583 1.225 6.226 6.661 3.204 19.326 5.211 27.304 2.257 8.972 13.829 15.636 21.417 8.339 1.743-1.676 1.828-3.98.933-5.826.255-.124.511-.235.765-.374.723-.394 1.256-.963 1.665-1.6 2.446-2.067 4.384-4.828 2.844-7.819zM304.426 280.73c-1.233-2.179-3.419-3.929-5.86-4.511-1.522-.363-2.991-.251-4.365.197a8.565 8.565 0 0 0-3.415 1.211c-2.704 1.684-3.921 4.595-3.946 7.596-.388 2.112-.051 4.214 1.478 5.75 1.234 2.19 3.181 3.928 5.729 4.529 3.994.943 7.988-.936 10.143-4.369a10.108 10.108 0 0 0 .236-10.403z" style="" fill="#FFD45C" data-original="#ffd45c"></path><path d="M217.427 309.193c-1.929-.927-4.216-.953-6.321.128-6.093 3.131-7.24 11.991-2.714 16.938 5.528 6.043 15.957.474 16.113-7.027.088-4.2-3.043-8.942-7.078-10.039zM252.992 347.935c-.423-2.275-1.665-4.273-4.105-5.293-3.048-1.273-6.441-.152-8.743 2.07-.329.23-.663.455-.96.727-3.147 2.888-4.406 7.829-2.737 11.783 1.023 2.424 2.992 4.12 5.543 4.813 1.424.387 3.126.353 4.559.027 2.228-.508 3.578-2.329 4.362-4.323.33-.359.641-.74.92-1.151 1.688-2.486 2.219-5.856 1.161-8.653zM197.122 349.277c-.643-2.585-2.234-4.934-4.6-6.281-5.577-3.174-11.249 1.817-12.837 7.01-.753 2.462-.613 5.332.748 7.56.858 1.404 2.232 2.573 3.797 3.136 2.22 2.546 6.158 2.852 9.344 1.042 4.524-2.57 5.09-7.986 3.548-12.467zM333.814 412.108c-4.264 1.215-7.645 2.755-12.06.707-2.566-1.19-4.704-3.357-7.203-4.722-3.557-1.942-7.515-3.435-11.592-2.408-4.04 1.018-7.186 4.403-10.182 7.065-5.038 4.476-10.185 8.185-15.561 12.014-.191-.018-.39-.034-.57-.055-.796-.092-1.551-.323-2.286-.609-3.897-3.21-7.047-9.595-9.297-14.314.203-.324.38-.677.48-1.108 1.925-8.325-6.31-18.714-13.922-21.468a3.802 3.802 0 0 0-1.96-.84c-21.192-2.841-10.695 43.024-26.393 38.209-.404-.124-.783-.106-1.143-.033a40.927 40.927 0 0 1-.624-1.289 21.6 21.6 0 0 1-.969-2.591c3.062-9.914 1.456-24.171-3.42-33.333-8.874-16.675-26.085-3.358-39.72-8.35a3.677 3.677 0 0 0-2.045-.147c-1.743-2.44-3.187-5.38-5.069-7.3-1.395-1.424-3.643.05-3.226 1.878.878 3.838 2.442 7.682 4.692 10.908a3.659 3.659 0 0 0 1.262 2.196c1.12.945 2.212 1.844 3.337 2.651a17.135 17.135 0 0 0 2.409 1.51c.124.066.248.132.373.195.213.104.43.204.648.299.385.173.781.329 1.186.471l.109.038c.67.23 1.36.432 2.101.568v-.038c.419.08.837.161 1.272.209 2.222.243 3.848-1.395 4.465-3.36a97.756 97.756 0 0 0 7.434-.205c5.404-.346 8.362-.007 10.302 2.933-.852 8.567.706 17.541 3.187 25.708.079.261.177.499.289.715.283 2.47.683 4.911 1.402 7.208 2.156 6.892 10.691 21.73 19.737 20.182 1.957.839 4.497.323 6.103-1.044 5.763-4.904 5.869-13.116 5.39-20.698 1.801-6.773 2.588-13.848 4.185-20.862.975-.054 2.014.089 2.728.765.271.257.55.467.833.643l.069.054a.084.084 0 0 1 .005-.017c.784.467 1.6.652 2.381.599.744.288 1.52.358 2.278.241.918 2.07 1.899 4.025 3.366 5.23.383.315.822.54 1.277.723.143.517.273 1.037.419 1.553.884 3.107 1.62 7.089 3.715 9.703.189.555.398 1.099.603 1.644-.358.592-.572 1.269-.537 2.005.152 3.118 2.182 4.927 4.763 5.968 1.854 2.409 4.168 4.372 7.213 5.549 6.422 2.48 11.644-.528 15.779-5.363 3.705-4.331 10.121-9.032 12.663-14.589 1.649-.307 3.441-.094 5.501.96 4.81 2.462 7.917 6.8 13.571 7.699 4.016.639 7.78-.61 11.575-1.729a4.927 4.927 0 0 0 2.996-.866l.461-.319c5.551-3.835 2.336-13.37-4.78-11.343zM261.232 451.799c-4.021-4.513-10.41-3.562-13.428 1.479a9.703 9.703 0 0 0-1.35 4.23c-1.924 3.979-.705 9.159 2.439 12.178 4.458 4.28 10.819 2.287 13.802-2.581 2.965-4.838 2.275-11.11-1.463-15.306zM266.873 107.024c-.772-14.004-1.552-28.007-2.232-42.016-.705-14.509-.135-30.105-2.486-44.416-.998-6.075-4.824-15.173-11.858-16.351-8.487-1.422-10.395 8.667-10.108 14.963.275 6.037 2.098 11.887 2.418 17.937.359 6.785-.253 13.571.408 20.353 1.3 13.324 4.966 26.399 6.592 39.72.907 7.431 1.352 14.928 1.89 22.393.258 3.576.124 7.397.626 11.04a4.96 4.96 0 0 0-1.232 1.769c-.155.392-.138.327.049-.194-1.111 1.803-.845 4.227.412 5.854 1.405 1.82 3.362 2.194 5.54 1.889-1.172.167-.907.133.794-.1a4.72 4.72 0 0 0 1.285-.424c.055-.015.202-.071.407-.155 2.415 1.21 5.469.871 7.283-2.309 4.489-7.869.68-21.455.212-29.953z" style="" fill="#FFD45C" data-original="#ffd45c"></path><path d="M260.604 115.441c-.408-12.72-1.845-25.409-3.516-38.018-1.663-12.552-4.291-24.938-5.803-37.51-1.228-10.207-1.091-21.706-5.791-31.041-.495-.984-1.75-.733-2.3 0-.478.638-.493.807-.415 1.611.061.623.719.911 1.204.499-3.189 2.712-.93 12.719-.797 16.377.216 5.974.207 11.96.535 17.93.637 11.582 2.697 23.093 3.939 34.624 1.274 11.835 1.834 23.657 2.595 35.527.346 5.388-.609 16.276 2.608 21.176l.092-.071c1.353 2.237 4.844 2.903 7.016.071 3.513-4.579.8-15.971.633-21.175z" style="" fill="#FFBE4A" data-original="#ffbe4a"></path><path d="M401.552 229.392c-2.781-11.837-14.319-13.761-26.854-12.745 20.047-22.24-12.172-81.844-27.374-97.992-20.369-21.635-48.59-32.061-77.819-33.786a3139.859 3139.859 0 0 0-2.073-32.037c-.966-13.673-1.269-28.027-3.978-41.489C262.127 4.748 259.167.459 252.053.045c-6.329-.369-14.259 1.449-15.942 8.393-1.476 6.09.697 13.637 1.293 19.711.715 7.28 1.367 14.567 2.032 21.852a1163.06 1163.06 0 0 0 3.926 36.716c-18.752 3.742-37.014 12.34-52.602 23.669a162.722 162.722 0 0 0-17.835 12.11c-16.768 13.105-30.496 30.317-37.351 50.631-5.105 15.128-9.197 36.851 2.662 47.788-14.17 1.993-27.716 8.806-28.255 22.549-.574 14.626 13.423 19.074 25.524 19.876.383.026.769.038 1.152.062-1.962 24.848-1.1 50.018-.351 74.882.768 25.48 2.027 51.027 4.55 76.398 1.114 11.205 2.828 22.312 4.217 33.48 1.104 8.869 1.62 17.899 4.061 26.542 5.13 18.156 19.897 27.018 37.444 31.436 21.359 5.379 44.534 6.187 66.43 5.765 22.285-.43 45.489-.601 67.601-3.544 18.291-2.434 32.653-9.806 38.854-27.996 6.39-18.742 4.71-40.394 6.04-59.862 2.002-29.313 3.371-58.558 4.58-87.911.583-14.151 1.758-28.205 2.8-42.322.83-11.243.142-22.564.758-33.827 3.666-.506 7.279-1.277 10.792-2.467 10.242-3.471 19.904-12.732 17.119-24.584zM280.622 95.808c15.493 2.978 30.483 8.819 43.241 17.917 18.431 13.141 31.673 32.757 38.522 54.195 3.701 11.587 14.333 40.283-3.353 44.538-2.175.523-4.42.895-6.706 1.173 4.513-11.703 5.19-26.611-.59-37.557-5.323-10.083-15.978-18.436-27.008-14.675-2.303-6.9-7.235-11.64-14.604-14.229-4.238-1.489-8.87-2.317-13.367-2.35-3.387-.025-6.421.531-9.673 1.507-1.521.456-4.67 2.531-6.076 2.297-.407-.068-1.628-1.49-2.763-2.887-1.753-2.157-3.463-4.068-5.777-5.65-.517-.353-1.059-.647-1.596-.954.069-.152.142-.299.193-.471 3.3-10.997.055-25.759-.572-37.022-.099-1.782-.214-3.565-.315-5.347 3.465-.194 6.941-.352 10.444-.485zm-72.778 108.968c5.705-.499 10.195-3.601 14.355-7.297 3.094-2.749 6.264-7.097 9.971-8.978 6.422-3.259 9.254.997 13.567 5.144 11.965 11.506 29.154 11.341 42.016 1.245 5.408-4.245 8.83-9.984 11.85-16.06 4.255-8.56 9.991-15.855 14.648-24.077 2.929 2.71 4.813 6.509 4.778 11.478-.014 2.022 2.229 4.135 4.327 3.296 12.034-4.812 22.064 4.274 24.791 16.049 2.214 9.56-1.003 19.535-3.697 28.643-9.829.334-20.068-.515-29.336-.188-16.323.575-32.635.704-48.965.852-29.315.264-58.599 1.671-87.92 1.653-2.511-.002-6.105.196-10.038.255l-.001-.017c-2.553-10.741.26-21.486 9.615-28.177 5.005 10.369 18.962 17.147 30.039 16.179zm-27.457-17.643c2.163-.894 4.572-1.259 6.916-1.688 10.308 7.464 20.806 9.277 30.439-.977 5.043-5.368 9.079-13.167 17.471-13.099 6.022.048 11.588 4.074 16.622 6.945 7.228 4.122 15.594 8.577 23.846 4.466 12.984-6.469 12.686-23.918 24.197-31.928a2 2 0 0 0 .784-1.083c3.34.078 6.624.784 9.47 2.17-4.716 6.417-9.788 12.109-13.326 19.344-2.673 5.467-4.957 11.321-9.042 15.944-7.31 8.27-19.995 12.827-30.387 7.957-6.525-3.058-9.031-8.779-14.307-12.944-8.194-6.468-15.96 2.019-21.703 7.753-5.406 5.399-10.326 10.383-18.664 9.807-8.135-.561-17.945-5.344-22.316-12.667zm93.858-35.003c1.088 1.324 1.969 2.942 3.636 3.632 4.642 1.92 9.98-3.291 13.993-4.681-5.625 5.531-7.521 15.126-12.008 21.43-9.216 12.952-20.526 4.137-30.955-1.53-6.873-3.735-14.608-6.541-22.086-2.643-5.068 2.642-8.237 7.418-11.863 11.634-4.212 4.898-8.696 7.997-15.446 6.963-2.724-.417-5.364-1.453-7.978-2.523 1.243-.434 2.401-1.008 3.399-1.859 5.967-5.084.117-14.532 5.718-20.696 7.711-8.488 21.552-10.57 32.119-8.137 1.566.361 3.064-.255 3.927-1.598 1.322-2.058 2.743-3.833 4.327-5.347 5.973-2.346 12.159-4.81 18.575-4.28 7.093.588 10.441 4.525 14.642 9.635zm-10.774-55.391c.163 2.81.344 5.619.489 8.429.502 9.718 3.204 21.959.764 31.487a24.708 24.708 0 0 0-2.829-.503c-3.013-.356-6.069-.219-9.065.329 1.015-8.63-.161-17.711-.994-26.224-.396-4.051-.833-8.097-1.277-12.142a209.342 209.342 0 0 1 12.912-1.376zM249.642 6.912c10.752-.204 8.953 20.198 9.629 27.746 1.03 11.5 1.792 23.021 2.508 34.544.32 5.154.653 10.307.978 15.461-4.508.034-9.03.413-13.538 1.061a668.47 668.47 0 0 1-1.01-10.195c-1.094-12.145-2.016-24.307-3.031-36.459-.507-6.065-1.008-12.133-1.606-18.19-.584-5.913-2.733-13.801 6.07-13.968zM144.615 181.349c4.368-18.792 15.364-35.131 29.404-48.123 15.931-14.74 35.781-24.937 56.553-30.939 4.806-1.389 9.575-2.434 14.333-3.272 1.521 12.706 1.901 25.853 3.939 38.452-2.75.849-5.4 2.036-7.876 3.482-2.968 1.328-5.774 3.441-8.096 5.48-10.006-3.164-21.216-.75-30.251 4.465-5.284 3.05-10.094 7.275-12.249 13.123-.973 2.64.088 11.403-1.261 12.656-2.091 1.94-9.204 1.581-12.337 3.349-5.191 2.929-9.719 7.298-12.728 12.442-3.815 6.521-7.201 17.064-3.297 24.186-7.699-.464-15.089-2.173-17.384-7.458-3.163-7.285-.479-20.402 1.25-27.843zm216.639 93.656c-.289 11.182-1.285 22.213-2.057 33.369-1.624 23.461-1.784 46.984-3.066 70.46-1.287 23.58-3.425 47.096-4.419 70.694-.619 14.685-1.221 35.211-16.463 42.57-17.376 8.39-41.531 5.784-60.35 6.741-21.948 1.116-43.71 1.248-65.581-1.187-17.789-1.981-41.843-5.338-48.016-25.007-2.368-7.548-2.947-15.496-3.918-23.303-1.364-10.968-3.23-21.855-4.448-32.846-5.623-50.74-4.721-101.976-9.594-152.738 3.781.156 7.576.239 11.377.289.039 20.272 5.148 39.757 5.187 60.06.045 23.798 2.937 46.576 5.928 70.096 2.586 20.33 3.167 41.092 6.625 61.296 2.738 15.996 13.465 24.016 28.369 28.755 16.648 5.294 34.821 5.986 52.133 7.113 22.032 1.435 44.817-2.248 66.5-5.957 11.108-1.9 20.802-6.519 24.947-17.619 6.75-18.077 2.411-40.32 1.067-58.979-1.868-25.934-1.482-53.045.216-78.994.86-13.142 4.19-25.868 5.065-38.983.737-11.066 2.765-22.493 1.631-33.565 3.704.054 7.436.091 11.158-.025-1.696 5.679-2.129 11.481-2.291 17.76zM181.113 395.619c5.491.551 9.932-3.354 15.15-3.608 9.255-.451 7.263 14.272 8.075 20.428 1.49 11.286 5.351 22.188 13.644 30.259 5.178 5.039 13.359 10.354 20.227 5.218 6.302-4.712 5.855-13.933 6.413-20.892.382-4.76.64-9.805 2.183-14.364 3.15-9.306 8.168-3.163 10.59 3.07 3.088 7.948 4.033 17.485 10.922 23.218 7.725 6.429 18.188 6.277 25.819-.272 4.173-3.582 6.277-8.528 9.576-12.806.988-1.282 2.768-4.043 4.302-4.527 3.191-1.006 6.608 2.864 8.42 4.762 1.598 1.674 2.336 3.53 4.374 4.875 6.052 3.998 14.034 1.688 19.286-3.064.187 3.858.342 7.72.4 11.593.218 14.777.455 32.696-16.331 37.684-7.528 2.237-15.711 2.69-23.452 3.805-11.602 1.671-23.237 3.291-34.972 3.558-16.593.378-34.372-1.155-50.689-4.19-7.745-1.441-15.583-3.452-22.529-7.266-9.681-5.315-12.554-13.522-13.712-23.919-2.073-18.606-3.535-37.363-6.291-55.882l-.673-4.537c1.552 3.519 3.876 6.316 9.268 6.857zm-10.541-15.551c-.339-2.346-.673-4.688-.998-7.028 3.465 5.483 9.125 9.174 15.86 10.137 5.305.758 9.097-1.222 14.115-2.429 5.663-1.363 12.525-1.509 14.882 4.524 1.35 3.455 1.442 7.301 1.608 10.958.226 4.983 2.591 43.486 15.476 29.182 4.377-4.858 4.125-14.766 5.255-20.866.828-4.473 1.755-9.538 4.152-13.485 5.679-9.349 13.9-3.766 17.744 3.868 5.697 11.315 9.737 39.53 29.372 26.939 3.916-2.512 6.355-6.556 9.436-9.915 3.088-3.367 5.759-5.62 10.497-5.214 4.088.351 5.235 2.199 8.15 4.674 6.663 5.659 15.545 6.545 23.202 3.058.086 1.356.172 2.713.256 4.069-.21.255-.398.543-.534.893-2.04 5.23-10.572 9.477-15.724 6.026-1.619-1.085-2.79-3.828-4.154-5.374-2.289-2.596-5.139-5.005-8.759-5.162-7.472-.324-11.829 8.006-15.4 13.257-5.003 7.356-12.249 12.68-21.063 7.586-5.388-3.113-6.584-7.347-8.508-12.908-2.106-6.09-4.003-15.363-9.36-19.599-11.972-9.469-16.178 14.085-16.912 20.833-.42 3.86-.434 7.84-1.094 11.665-.314 1.818-.496 4.011-1.669 5.535-4.402 5.727-10.009 1.375-13.602-1.831-10.844-9.676-12.866-24.008-13.911-37.725-.587-7.696-2.597-15.875-11.966-15.276-5.129.328-10.75 5.54-15.809 4.538-6.382-1.264-7.882-6.439-10.542-10.93zm169.28-60.92c-1.156 9.665.771 21.8-2.092 30.995-1.347 4.328-5.849 8.071-10.491 6.265-5.76-2.24-4.102-9.728-5.018-15.232-.977-5.875-2.902-13.552-8.526-16.749-10.007-5.687-19.871 6.4-29.472 1.214-9.494-5.128-7.904-19.441-10.323-28.544-5.632-21.189-26.656-18.578-44.19-17.384-12.311.838-24.733-.347-36.561-3.931-6.879-2.084-17.45-5.355-22.431-11.756 8.967-.096 17.925-.306 26.795-.43 49.096-.69 98.125-6.68 147.226-6.421.3.002.605.008.906.01 1.344 9.873-.948 20.204-1.517 30.093-.622 10.802-3.026 21.165-4.306 31.87zm-133.73-35.606c13.548 2.267 26.503.296 40.043.277 8.2-.011 17 1.182 21.457 9.051 2.734 4.827 3.047 11.141 3.809 16.475 1.147 8.029 2.777 17.099 10.611 21.326 3.938 2.125 7.962 2.261 12.202 1.331 8.426-1.849 17.596-7.508 21.635 3.952 2.552 7.24-.079 18.944 5.191 25.042 3.815 4.414 8.628 3.166 13.081.674-.536 4.653-.771 9.438-3.242 13.496-4.978 8.176-14.009 4.502-17.817-2.323-2.069-3.708-1.968-7.152-1.853-11.193.124-4.373.841-9.406-.809-13.613-3.361-8.565-13.778-6.4-21.049-5.832-19.777 1.544-21.806-14.077-25.601-29.398-4.925-19.882-22.878-21.742-40.581-21.232-11.125.32-22.377 1.399-33.063-2.456-13.684-4.936-20.092-15.169-28.751-25.04 1.983.002 3.968-.017 5.952-.031 3.321 11.962 30.115 18.043 38.785 19.494zm-6.492 12.665c15.878 2.158 38.562-5.308 52.21 5.261 14.781 11.446 4.572 40.791 27.89 45.643 3.946.821 8.161.162 12.121-.166 2.749-.227 6.199-1.032 8.881-.339 5.161 1.334 6.044 5.628 6.031 10.423-.023 8.656-1.07 16.078 5.473 22.92 9.365 9.793 16.018 2.368 24.019-2.759 4.63 7.288 2.138 22.239 2.653 30.638-5.973 3.425-12.882 3.937-18.654-.548-2.827-2.197-4.722-5.125-8.22-6.421-7.222-2.676-14.197 1.529-18.863 6.79-2.896 3.265-5.149 7.279-9.091 9.393-8.922 4.786-13.137-3.386-15.599-10.555-2.461-7.166-5.129-15.222-10.354-20.899-11.819-12.841-22.887 1.823-25.938 13.53-.974 3.74-1.882 19.931-5.602 21.128-5.111 1.645-4.906-23.83-5.2-27.536-.64-8.055-2.975-17.132-12.083-18.87-5.575-1.064-10.151 1.785-15.279 3.481-9.685 3.202-19.539-.655-24.626-9.576a.99.99 0 0 0-.6-.47c-1.962-14.872-3.475-29.72-3.779-44.977-.381-19.103-4.675-37.794-6.526-56.792 6.807 16.091 24.479 28.437 41.136 30.701zm178.125-51.631c-10.732 2.644-22.04 1.826-32.987 1.79-36.659-.122-73.558 3.197-110.138 5.377-19.587 1.167-39.14 2.085-58.765 2.169-14.404.062-29.774 1.59-44.103-.353-6.416-.87-14.501-3.775-12.263-11.865 1.459-5.274 7.724-8.289 12.379-10.055 5.866-2.227 12.697-3.782 19.438-4.547 13.931 3.174 29.37 1.766 43.412 1.445 17.701-.405 35.391-1.171 53.092-1.572 18.651-.423 37.305-.243 55.955-.731 17.611-.461 36.06.647 53.526-1.526a38.552 38.552 0 0 0 5.239-1.018c.573.02 1.147.034 1.72.071 7.056.455 18.909-.015 24.71 4.723 8.393 6.855-5.29 14.633-11.215 16.092z" fill="#000000" opacity="1" data-original="#000000"></path><path d="M227.266 318.083c-.691-6.62-7.168-15.709-14.799-13.142-5.874 1.977-8.834 8.994-9.37 14.693-1.562 16.597 26.021 16.196 24.169-1.551zm-20.097 1.053c.777-3.282 3.771-9.386 7.914-9.084 2.478.18 4.221 2.791 5.327 4.741 2.067 3.643 2.42 8.938-1.22 11.785-4.101 3.206-9.952.749-11.932-3.516a9.324 9.324 0 0 1-.377-.941c-.045-.891.023-1.865.288-2.985zM292.898 272.326c-5.874 1.977-8.834 8.993-9.37 14.693-1.563 16.597 26.02 16.196 24.169-1.551-.691-6.621-7.169-15.71-14.799-13.142zm6.723 21.635c-4.101 3.206-9.952.749-11.932-3.516a9.324 9.324 0 0 1-.377-.941c-.045-.889.023-1.863.288-2.983.777-3.282 3.771-9.386 7.914-9.085 2.478.18 4.221 2.792 5.327 4.741 2.067 3.643 2.42 8.938-1.22 11.784zM267.165 459.312c-.691-6.621-7.168-15.709-14.799-13.142-5.874 1.977-8.834 8.993-9.37 14.693-1.563 16.597 26.021 16.196 24.169-1.551zm-20.098 1.054c.777-3.282 3.771-9.386 7.914-9.085 2.478.18 4.221 2.792 5.327 4.741 2.067 3.644 2.42 8.939-1.22 11.785-4.101 3.206-9.952.749-11.932-3.516a9.324 9.324 0 0 1-.377-.941 10.54 10.54 0 0 1 .288-2.984zM257.982 351.332c-.691-6.62-7.168-15.709-14.799-13.141-5.874 1.977-8.834 8.994-9.37 14.693-1.563 16.596 26.021 16.195 24.169-1.552zm-20.097 1.053c.777-3.282 3.771-9.386 7.914-9.084 2.478.18 4.221 2.792 5.327 4.741 2.067 3.643 2.42 8.939-1.221 11.785-4.1 3.206-9.951.749-11.932-3.516a9.665 9.665 0 0 1-.377-.941c-.044-.891.024-1.865.289-2.985zM201.617 351.649c-.691-6.62-7.168-15.709-14.799-13.141-5.874 1.977-8.834 8.993-9.37 14.693-1.563 16.596 26.02 16.195 24.169-1.552zm-20.098 1.053c.777-3.282 3.771-9.386 7.914-9.084 2.478.18 4.221 2.792 5.327 4.741 2.067 3.643 2.42 8.939-1.22 11.785-4.101 3.206-9.952.749-11.932-3.516a9.42 9.42 0 0 1-.377-.941c-.044-.891.023-1.865.288-2.985z" fill="#000000" opacity="1" data-original="#000000"></path></g></svg>