<svg xmlns="http://www.w3.org/2000/svg" version="1.1" xmlns:xlink="http://www.w3.org/1999/xlink" width="512" height="512" x="0" y="0" viewBox="0 0 453.543 453.543" style="enable-background:new 0 0 512 512" xml:space="preserve"><g><path fill="#FCCE61" d="m160.954 263.249 58.653 183.744c2.513 7.872 11.813 7.872 14.326 0l58.653-183.744z" opacity="1" data-original="#fcce61"></path><path d="m160.276 263.436 6.274 19.655 14.892 46.654 17.684 55.4 14.379 45.044 4.203 13.168c.87 2.725 1.541 5.826 3.614 7.911 3.166 3.184 8.277 2.993 11.236-.369 1.133-1.287 1.76-2.831 2.278-4.433.943-2.916 1.864-5.839 2.796-8.758l12.819-40.16 17.388-54.473 16.097-50.427 8.911-27.915.415-1.299c.14-.438-.236-.889-.678-.889H160.953c-.904 0-.906 1.405 0 1.405h131.631l-.678-.89-6.091 19.081-14.528 45.511-17.416 54.559-14.528 45.511c-2.027 6.349-3.865 12.798-6.091 19.081-1.044 2.948-3.359 5.49-6.707 5.381-3.158-.103-5.28-2.597-6.264-5.382-.166-.469-.304-.951-.455-1.426l-3.166-9.918-12.995-40.709-17.25-54.038-15.676-49.109-8.71-27.286-.401-1.257c-.271-.855-1.628-.488-1.352.377z" fill="#000000" opacity="1" data-original="#000000"></path><path d="m213.29 425.461 5.098-15.97 12.246-38.364 14.824-46.439 12.88-40.349 4.206-13.177c.631-1.976 1.773-4.256 2.019-6.326l.088-.274c.276-.864-1.081-1.233-1.355-.374l-5.098 15.97-12.246 38.364-14.824 46.439-12.88 40.349-4.206 13.178c-.631 1.975-1.773 4.256-2.019 6.325l-.088.274c-.275.864 1.081 1.234 1.355.374zM198.835 379.986l12.579-39.405 20.039-62.777 4.586-14.368c.276-.864-1.081-1.233-1.355-.374l-12.579 39.405-20.039 62.777-4.586 14.368c-.276.864 1.081 1.234 1.355.374zM184.529 335.17l20.084-62.919 2.814-8.815c.276-.864-1.081-1.233-1.355-.374l-20.084 62.919-2.814 8.815c-.276.864 1.081 1.233 1.355.374z" fill="#000000" opacity="1" data-original="#000000"></path><path d="m241.603 425.087-5.098-15.97-12.246-38.363-14.824-46.439-12.88-40.349-4.206-13.178c-.642-2.012-1.059-4.436-2.019-6.325l-.088-.274c-.274-.858-1.631-.491-1.355.374l5.098 15.97 12.246 38.363 14.824 46.439 12.88 40.349 4.206 13.178c.642 2.012 1.059 4.436 2.019 6.325l.088.274c.274.858 1.631.491 1.355-.374zM256.059 379.612l-12.579-39.405-20.039-62.777-4.586-14.368c-.274-.858-1.631-.491-1.355.374l12.579 39.405 20.039 62.777 4.586 14.368c.273.858 1.631.491 1.355-.374zM270.365 334.796l-20.084-62.919-2.814-8.815c-.274-.858-1.631-.491-1.355.374l20.084 62.919 2.814 8.815c.273.858 1.631.491 1.355-.374z" fill="#000000" opacity="1" data-original="#000000"></path><path fill="#B1D045" d="M307.469 242.97a87.623 87.623 0 0 0 7.327-35.154c0-48.616-39.411-88.026-88.026-88.026s-88.027 39.411-88.027 88.026a87.626 87.626 0 0 0 7.327 35.154c-7.608 5.086-12.622 13.75-12.622 23.589 0 15.663 12.697 28.36 28.36 28.36 8.687 0 16.452-3.916 21.654-10.068 5.202 6.152 12.967 10.068 21.654 10.068s16.452-3.916 21.654-10.068c5.202 6.152 12.967 10.068 21.654 10.068s16.452-3.916 21.654-10.068c5.202 6.152 12.967 10.068 21.654 10.068 15.663 0 28.36-12.697 28.36-28.36-.001-9.839-5.015-18.503-12.623-23.589z" opacity="1" data-original="#b1d045"></path><path d="M308.075 243.325c9.912-22.99 9.849-49.44-.525-72.256-8.932-19.646-25.141-35.689-44.882-44.413-20.277-8.961-43.702-9.995-64.679-2.795-20.22 6.941-37.539 21.265-48.195 39.794-12.147 21.121-15.023 46.945-7.841 70.237.99 3.211 2.181 6.348 3.51 9.433l.252-.961c-11.203 7.686-16.019 22.254-10.895 34.989 4.687 11.651 16.663 19.141 29.199 18.183 7.755-.592 14.866-4.334 19.939-10.188h-.994c11.659 13.455 32.643 13.455 44.302 0h-.994c11.659 13.455 32.643 13.455 44.302 0h-.994c8.883 10.251 23.894 13.279 35.921 6.81 11.23-6.041 17.239-19.057 14.684-31.529-1.534-7.493-6.095-13.965-12.363-18.265-.748-.513-1.451.705-.709 1.214 10.698 7.34 15.164 21.294 10.249 33.402-4.445 10.952-15.71 17.934-27.478 17.175-7.532-.486-14.398-4.131-19.311-9.8-.236-.273-.758-.272-.994 0-11.187 12.91-31.128 12.91-42.314 0-.236-.273-.758-.272-.994 0-11.187 12.91-31.128 12.91-42.314 0-.236-.273-.758-.272-.994 0-8.465 9.769-22.721 12.774-34.219 6.59-10.534-5.667-16.374-17.824-14.106-29.592 1.402-7.273 5.699-13.599 11.785-17.775.342-.235.412-.59.252-.962-9.861-22.873-9.595-49.411 1.045-71.962 8.898-18.858 24.531-34.164 43.573-42.659 19.901-8.879 42.96-9.877 63.585-2.88 19.897 6.75 36.967 20.812 47.497 38.982 13.792 23.799 15.368 53.274 4.484 78.518-.351.822.859 1.539 1.216.71z" fill="#000000" opacity="1" data-original="#000000"></path><path fill="#F75AA8" d="M307.469 123.857a87.623 87.623 0 0 0 7.327-35.154c0-48.616-39.411-88.026-88.026-88.026s-88.027 39.411-88.027 88.026a87.623 87.623 0 0 0 7.327 35.154c-7.608 5.086-12.622 13.75-12.622 23.589 0 15.663 12.697 28.36 28.36 28.36 8.687 0 16.452-3.916 21.654-10.068 5.202 6.152 12.967 10.068 21.654 10.068s16.452-3.916 21.654-10.068c5.202 6.152 12.967 10.068 21.654 10.068s16.452-3.916 21.654-10.068c5.202 6.152 12.967 10.068 21.654 10.068 15.663 0 28.36-12.697 28.36-28.36-.001-9.839-5.015-18.503-12.623-23.589z" opacity="1" data-original="#f75aa8"></path><path d="M308.075 124.212c9.912-22.991 9.849-49.44-.525-72.257-8.932-19.646-25.141-35.689-44.882-44.413-20.277-8.96-43.702-9.995-64.679-2.794-20.22 6.941-37.539 21.265-48.195 39.794-12.147 21.121-15.023 46.945-7.841 70.237.99 3.211 2.181 6.348 3.51 9.433l.252-.962c-11.203 7.686-16.019 22.254-10.895 34.989 4.687 11.651 16.663 19.14 29.199 18.183 7.755-.592 14.866-4.334 19.939-10.188h-.994c11.659 13.455 32.643 13.455 44.302 0h-.994c11.659 13.455 32.643 13.455 44.302 0h-.994c8.883 10.252 23.894 13.28 35.921 6.81 11.23-6.041 17.239-19.057 14.684-31.529-1.534-7.493-6.095-13.965-12.363-18.265-.748-.513-1.451.705-.709 1.214 10.698 7.34 15.164 21.294 10.249 33.402-4.445 10.952-15.71 17.934-27.478 17.175-7.532-.485-14.398-4.131-19.311-9.8-.236-.273-.758-.272-.994 0-11.187 12.91-31.128 12.91-42.314 0-.236-.273-.758-.272-.994 0-11.187 12.91-31.128 12.91-42.314 0-.236-.273-.758-.272-.994 0-8.465 9.769-22.721 12.774-34.219 6.59-10.534-5.667-16.374-17.824-14.106-29.592 1.402-7.273 5.699-13.599 11.785-17.775.342-.235.412-.59.252-.961-9.861-22.873-9.595-49.411 1.045-71.962 8.898-18.858 24.531-34.164 43.573-42.66 19.901-8.879 42.96-9.877 63.585-2.88 19.897 6.75 36.967 20.812 47.497 38.982 13.792 23.799 15.368 53.275 4.484 78.518-.351.823.859 1.54 1.216.711z" fill="#000000" opacity="1" data-original="#000000"></path><circle cx="196.043" cy="83.758" r="27.065" fill="#FFFFFF" opacity="1" data-original="#ffffff"></circle><circle cx="257.496" cy="83.758" r="27.065" fill="#FFFFFF" opacity="1" data-original="#ffffff"></circle><path d="M222.406 83.758c-.133 11.132-7.143 21.284-17.758 24.928-10.288 3.532-21.939.261-28.895-8.091-7.054-8.471-8.01-20.854-2.369-30.319 5.619-9.427 16.823-14.487 27.615-12.417 12.392 2.376 21.258 13.38 21.407 25.899.011.904 1.416.906 1.405 0-.138-11.561-7.295-22.044-18.202-26.074-10.961-4.049-23.658-.549-31.043 8.48-7.308 8.935-8.315 21.853-2.395 31.785 5.951 9.984 17.795 15.269 29.202 13.063 12.992-2.511 22.282-14.144 22.438-27.255.011-.904-1.395-.904-1.405.001zM229.728 83.758c.138 11.561 7.295 22.044 18.202 26.074 10.961 4.049 23.658.549 31.043-8.48 7.308-8.935 8.315-21.853 2.395-31.785-5.951-9.984-17.795-15.269-29.202-13.063-12.992 2.511-22.282 14.143-22.438 27.254-.011.905 1.395.905 1.405 0 .133-11.132 7.143-21.284 17.758-24.928 10.288-3.532 21.939-.261 28.895 8.091 7.054 8.471 8.01 20.854 2.369 30.319-5.619 9.427-16.823 14.487-27.615 12.418-12.392-2.377-21.257-13.38-21.406-25.9-.012-.904-1.417-.906-1.406 0z" fill="#000000" opacity="1" data-original="#000000"></path><path fill="#F0424B" d="M184.941 108.864c0 3.345-5.003 6.057-11.174 6.057s-11.174-2.712-11.174-6.057 5.003-6.056 11.174-6.056c6.172 0 11.174 2.711 11.174 6.056zM290.944 108.864c0 3.345-5.003 6.057-11.174 6.057s-11.174-2.712-11.174-6.057 5.003-6.056 11.174-6.056c6.172 0 11.174 2.711 11.174 6.056z" opacity="1" data-original="#f0424b"></path><path d="M184.239 108.864c-.099 3.193-4.46 4.566-6.988 5.045-3.708.702-8.1.392-11.398-1.58-1.111-.664-2.308-1.675-2.523-3.033-.201-1.266.553-2.371 1.474-3.159 2.844-2.432 7.28-2.871 10.851-2.542 2.845.264 8.468 1.552 8.584 5.269.028.902 1.434.906 1.405 0-.118-3.802-4.511-5.67-7.677-6.332-4.324-.904-9.671-.583-13.399 2.024-2.716 1.899-3.634 5.177-1.122 7.691 3.142 3.146 8.57 3.727 12.755 3.231 3.584-.425 9.305-2.157 9.444-6.614.027-.904-1.378-.903-1.406 0zM290.242 108.864c-.099 3.193-4.46 4.566-6.988 5.045-3.708.702-8.1.392-11.398-1.58-1.111-.664-2.308-1.675-2.523-3.033-.201-1.266.553-2.371 1.474-3.159 2.844-2.432 7.28-2.871 10.851-2.542 2.845.264 8.468 1.552 8.584 5.269.028.902 1.434.906 1.405 0-.118-3.802-4.511-5.67-7.677-6.332-4.324-.903-9.671-.583-13.399 2.024-2.716 1.899-3.634 5.177-1.122 7.691 3.142 3.146 8.57 3.727 12.754 3.231 3.584-.425 9.305-2.156 9.444-6.614.028-.904-1.377-.903-1.405 0zM205.448 67.759a11.083 11.083 0 0 0-9.404 4.325 11.083 11.083 0 0 0-9.645-4.31c-5.557.41-9.989 4.976-10.248 10.542a11.075 11.075 0 0 0 3.542 8.669l15.425 15.424a1.31 1.31 0 0 0 1.854 0l15.424-15.424c2.154-2.22 3.608-5.026 3.553-8.321-.099-5.791-4.717-10.599-10.501-10.905zM266.9 67.759a11.083 11.083 0 0 0-9.404 4.325 11.083 11.083 0 0 0-9.645-4.31c-5.557.41-9.989 4.976-10.248 10.542a11.075 11.075 0 0 0 3.542 8.669l15.424 15.424a1.31 1.31 0 0 0 1.854 0l15.424-15.424c2.154-2.22 3.608-5.026 3.553-8.321-.098-5.791-4.716-10.599-10.5-10.905z" fill="#000000" opacity="1" data-original="#000000"></path><path fill="#F0424B" d="M243.261 106.834c-.061-4.278-3.546-7.944-7.816-8.205a8.31 8.31 0 0 0-5.124 1.366 6.383 6.383 0 0 1-7.103 0 8.307 8.307 0 0 0-5.125-1.366c-4.27.262-7.755 3.928-7.816 8.206a8.298 8.298 0 0 0 .909 3.901l-.004.001s4.099 9.053 15.586 9.053 15.586-9.053 15.586-9.053l-.003-.002a8.287 8.287 0 0 0 .91-3.901z" opacity="1" data-original="#f0424b"></path><path d="M243.964 106.834c-.162-3.783-2.526-7.159-6.135-8.433-2.031-.717-4.316-.632-6.307.175-1.118.453-2.058 1.259-3.229 1.586-1.448.405-2.961.196-4.279-.504-2.08-1.105-3.939-1.959-6.375-1.69-1.81.2-3.517.969-4.892 2.158-3.214 2.778-3.939 7.182-2.167 10.965l.42-1.032-.004.001c-.451.177-.624.588-.42 1.032 1.771 3.857 5.657 6.869 9.554 8.287 6.735 2.45 14.804.921 19.862-4.224 1.152-1.172 2.277-2.556 2.969-4.063.152-.332.111-.772-.252-.961l-.003-.002.252.961a10.3 10.3 0 0 0 1.006-4.256c.019-.905-1.386-.905-1.405 0-.027 1.279-.272 2.392-.813 3.546-.155.331-.109.773.252.961l.003.002-.252-.961c-5.307 11.56-24.651 11.559-29.958 0l-.42 1.032.004-.001c.448-.176.627-.59.42-1.032-1.745-3.726-.409-8.163 3.248-10.152a7.559 7.559 0 0 1 5.85-.565c1.76.55 3.072 1.789 4.952 2.045 3.705.504 6.237-2.773 9.958-2.336 3.783.444 6.596 3.719 6.756 7.462.038.9 1.443.905 1.405-.001z" fill="#000000" opacity="1" data-original="#000000"></path><path d="m217.88 105.587-.002.001c-.461.154-.615.607-.42 1.032 1.018 2.219 3.258 3.938 5.494 4.761 3.881 1.428 8.554.515 11.455-2.463.647-.664 1.283-1.447 1.673-2.297.146-.319.119-.79-.252-.961l-.002-.001c-.816-.377-1.53.834-.709 1.213l.002.001-.252-.961c-2.571 5.604-10.926 6.118-14.891 1.855-.509-.548-.99-1.171-1.303-1.855l-.42 1.032.002-.001c.853-.285.487-1.643-.375-1.356z" fill="#000000" opacity="1" data-original="#000000"></path><circle cx="195.718" cy="219.588" r="27.351" fill="#FFFFFF" transform="rotate(-80.8 195.677 219.609)" opacity="1" data-original="#ffffff"></circle><path d="M217.981 217.482c-1.062-11.363-10.622-20.258-22.263-20.258-12.352 0-22.364 10.013-22.364 22.364s10.013 22.364 22.364 22.364c11.312 0 20.657-8.401 22.15-19.302l-22.15-3.062z" fill="#000000" opacity="1" data-original="#000000"></path><circle cx="257.82" cy="219.588" r="27.351" fill="#FFFFFF" transform="rotate(-16.86 257.575 219.471)" opacity="1" data-original="#ffffff"></circle><path d="M235.558 217.482c1.062-11.363 10.622-20.258 22.263-20.258 12.352 0 22.364 10.013 22.364 22.364s-10.013 22.364-22.364 22.364c-11.312 0-20.657-8.401-22.15-19.302l22.15-3.062zM222.367 219.588c-.131 11.19-7.14 21.397-17.779 25.137-10.528 3.701-22.5.313-29.551-8.324-7.081-8.674-7.883-21.263-2.014-30.788 5.848-9.489 17.342-14.427 28.252-12.095 12.262 2.621 20.946 13.622 21.092 26.07.011.904 1.416.906 1.405 0-.136-11.617-7.292-22.168-18.227-26.28-11.085-4.168-24.006-.687-31.502 8.473-7.419 9.066-8.438 22.165-2.391 32.228 6.021 10.019 17.901 15.303 29.377 13.128 13.16-2.495 22.587-14.285 22.743-27.55.011-.904-1.394-.904-1.405.001z" fill="#000000" opacity="1" data-original="#000000"></path><path d="M229.766 219.588c.136 11.617 7.292 22.168 18.227 26.28 11.085 4.168 24.006.687 31.502-8.473 7.419-9.066 8.438-22.165 2.391-32.228-6.021-10.019-17.901-15.303-29.377-13.128-13.16 2.494-22.587 14.284-22.743 27.549-.011.905 1.395.905 1.405 0 .131-11.19 7.14-21.398 17.779-25.137 10.528-3.701 22.5-.313 29.551 8.324 7.081 8.674 7.883 21.263 2.014 30.788-5.848 9.489-17.342 14.427-28.252 12.095-12.262-2.621-20.945-13.622-21.091-26.069-.011-.905-1.416-.907-1.406-.001z" fill="#000000" opacity="1" data-original="#000000"></path><path fill="#FFFFFF" d="M239.168 249.299c-.046-3.216-2.666-5.972-5.877-6.169a6.248 6.248 0 0 0-3.852 1.027 4.798 4.798 0 0 1-5.34 0 6.245 6.245 0 0 0-3.853-1.027c-3.21.197-5.83 2.953-5.876 6.169a6.241 6.241 0 0 0 .684 2.933l-.003.001s3.082 6.806 11.718 6.806 11.718-6.806 11.718-6.806l-.002-.001a6.24 6.24 0 0 0 .683-2.933z" opacity="1" data-original="#ffffff"></path><path d="M225.795 244.959v14.081c0 .904 1.405.906 1.405 0v-14.081c0-.904-1.405-.906-1.405 0zM229.197 244.222l2.87 11.665.403 1.64c.216.878 1.572.506 1.355-.374l-2.87-11.665-.403-1.64c-.216-.877-1.571-.506-1.355.374zM232.917 243.61l4.069 8.355.584 1.199c.396.813 1.608.101 1.214-.709l-4.069-8.354-.584-1.199c-.396-.814-1.609-.102-1.214.708zM223.016 243.848l-2.865 11.644a975.68 975.68 0 0 1-.403 1.637c-.216.878 1.139 1.253 1.355.374l2.865-11.644.403-1.637c.216-.878-1.139-1.253-1.355-.374zM219.369 243.042l-4.009 8.231-.575 1.181c-.394.81.817 1.523 1.213.709l4.009-8.231.575-1.181c.395-.809-.817-1.523-1.213-.709z" fill="#000000" opacity="1" data-original="#000000"></path><path d="M239.871 249.299c-.125-2.925-1.951-5.525-4.74-6.508-1.556-.549-3.309-.482-4.834.131-.84.338-1.551.947-2.427 1.192-1.043.292-2.133.143-3.083-.362-1.591-.846-3.019-1.494-4.881-1.294a6.98 6.98 0 0 0-3.801 1.673c-2.481 2.139-3.018 5.547-1.656 8.455l.42-1.032-.003.001c-.458.161-.618.602-.42 1.032 1.35 2.94 4.317 5.23 7.287 6.31 5.12 1.862 11.259.689 15.102-3.221.876-.891 1.734-1.944 2.259-3.09.15-.327.114-.779-.252-.961l-.002-.001.252.961a7.943 7.943 0 0 0 .779-3.286c.019-.905-1.386-.905-1.405 0-.02.927-.195 1.741-.588 2.578-.153.326-.112.78.252.961l.002.001-.252-.961c-3.938 8.577-18.284 8.577-22.222 0l-.42 1.032.003-.001c.456-.16.621-.603.42-1.032-1.272-2.715-.284-5.949 2.379-7.394a5.505 5.505 0 0 1 4.264-.407c1.322.415 2.309 1.34 3.723 1.538 2.808.393 4.716-2.08 7.51-1.753 2.756.322 4.812 2.712 4.928 5.438.039.901 1.445.906 1.406 0z" fill="#000000" opacity="1" data-original="#000000"></path><path fill="#F0424B" d="M184.5 244.959c0 3.38-5.055 6.12-11.292 6.12-6.236 0-11.292-2.74-11.292-6.12s5.056-6.12 11.292-6.12 11.292 2.74 11.292 6.12zM291.622 244.959c0 3.38-5.055 6.12-11.292 6.12-6.236 0-11.292-2.74-11.292-6.12s5.055-6.12 11.292-6.12 11.292 2.74 11.292 6.12z" opacity="1" data-original="#f0424b"></path><path d="M183.797 244.959c-.101 3.23-4.508 4.62-7.067 5.105-3.749.71-8.19.397-11.525-1.597-1.125-.672-2.335-1.695-2.553-3.069-.204-1.283.558-2.402 1.491-3.199 2.875-2.459 7.36-2.903 10.971-2.57 2.881.265 8.566 1.568 8.683 5.33.028.902 1.434.906 1.405 0-.12-3.839-4.557-5.724-7.753-6.392-4.368-.913-9.769-.588-13.535 2.045-2.741 1.917-3.667 5.223-1.132 7.761 3.174 3.178 8.658 3.764 12.884 3.263 3.617-.429 9.396-2.177 9.536-6.677.028-.904-1.377-.904-1.405 0zM290.92 244.959c-.101 3.23-4.508 4.62-7.067 5.105-3.749.71-8.19.397-11.525-1.597-1.125-.672-2.335-1.695-2.553-3.069-.204-1.283.559-2.402 1.491-3.199 2.875-2.459 7.36-2.903 10.97-2.57 2.882.265 8.567 1.568 8.684 5.33.028.902 1.434.906 1.405 0-.119-3.839-4.557-5.724-7.753-6.392-4.368-.913-9.769-.588-13.535 2.045-2.741 1.917-3.667 5.223-1.132 7.761 3.174 3.178 8.657 3.764 12.884 3.263 3.617-.429 9.396-2.177 9.536-6.677.028-.904-1.377-.904-1.405 0z" fill="#000000" opacity="1" data-original="#000000"></path></g></svg>