<svg xmlns="http://www.w3.org/2000/svg" version="1.1" xmlns:xlink="http://www.w3.org/1999/xlink" width="512" height="512" x="0" y="0" viewBox="0 0 512.82 512.82" style="enable-background:new 0 0 512 512" xml:space="preserve"><g><path fill="#A6E7F0" d="M389.89 455.65c0 19.846-16.088 35.933-35.933 35.933H158.864c-19.846 0-35.933-16.088-35.933-35.933v-29.491h266.96v29.491z" opacity="1" data-original="#a6e7f0"></path><path fill="#FDD79B" d="M85.756 330.431c-19.345 0-35.027 15.682-35.027 35.027s15.682 35.027 35.027 35.027v20.093h315.469l2.173-20.093h24.665c19.345 0 35.027-15.682 35.027-35.027s-15.682-35.027-35.027-35.027z" opacity="1" data-original="#fdd79b"></path><path fill="#FCCD7F" d="M103.153 365.458c0-19.345 15.682-35.027 35.027-35.027H85.756c-19.345 0-35.027 15.682-35.027 35.027s15.682 35.026 35.027 35.026v20.093h52.423v-20.093c-19.344 0-35.026-15.682-35.026-35.026zM251.924 330.431v11.388c0 19.762 16.078 35.84 35.84 35.84 11.839 0 22.355-5.771 28.886-14.646v42.106a38.14 38.14 0 0 0 3.263 15.459h70.223a38.14 38.14 0 0 0 3.263-15.459v-74.688z" opacity="1" data-original="#fccd7f"></path><path fill="#DCF5F8" d="M501.966 400.484a3.355 3.355 0 0 1 3.355 3.355c0 25.785-20.902 46.687-46.687 46.687H54.187c-25.785 0-46.687-20.902-46.687-46.687a3.355 3.355 0 0 1 3.355-3.355z" opacity="1" data-original="#dcf5f8"></path><path fill="#A6E7F0" d="M62.401 403.839a3.355 3.355 0 0 1 3.355-3.355H10.855a3.355 3.355 0 0 0-3.355 3.355c0 25.785 20.902 46.687 46.687 46.687h54.901c-25.784 0-46.687-20.902-46.687-46.687z" opacity="1" data-original="#a6e7f0"></path><path fill="#FCCD7F" d="M132.049 330.431v71.276a38.621 38.621 0 0 0 4.904 18.87h67.932a38.621 38.621 0 0 0 4.904-18.87v-71.276z" opacity="1" data-original="#fccd7f"></path><path fill="#A6E7F0" d="M132.049 400.484v1.223c0 21.433 17.437 38.87 38.87 38.87s38.871-17.437 38.871-38.87v-1.223z" opacity="1" data-original="#a6e7f0"></path><path fill="#FEDF30" d="M189.79 401.707c0 10.422-8.448 18.87-18.87 18.87s-18.87-8.448-18.87-18.87V282.856h37.741v118.851z" opacity="1" data-original="#fedf30"></path><path fill="#FAE2C0" d="M403.398 330.431h24.665c19.345 0 35.027-15.682 35.027-35.027s-15.682-35.027-35.027-35.027H85.756c-19.345 0-35.027 15.682-35.027 35.027s15.682 35.027 35.027 35.027z" opacity="1" data-original="#fae2c0"></path><path fill="#FDD79B" d="M251.924 260.378h141.475v70.053H251.924z" opacity="1" data-original="#fdd79b"></path><path fill="#A6E7F0" d="M316.649 400.484v4.635c0 21.16 17.215 38.374 38.374 38.374 21.16 0 38.375-17.214 38.375-38.374v-4.635z" opacity="1" data-original="#a6e7f0"></path><path fill="#FEDF30" d="M373.398 405.119c0 10.148-8.226 18.374-18.374 18.374-10.148 0-18.374-8.226-18.374-18.374v-99.742c0-9.125-7.398-16.523-16.523-16.523s-16.523 7.398-16.523 16.523v36.442c0 8.748-7.092 15.84-15.84 15.84-8.748 0-15.84-7.092-15.84-15.84V213.202h101.474z" opacity="1" data-original="#fedf30"></path><path fill="#FDD79B" d="M428.064 190.324c19.345 0 35.027 15.682 35.027 35.027s-15.682 35.027-35.027 35.027H85.756c-19.345 0-35.027-15.682-35.027-35.027s15.682-35.027 35.027-35.027z" opacity="1" data-original="#fdd79b"></path><path fill="#FAE2C0" d="M428.064 190.325c19.345 0 35.027-15.682 35.027-35.027s-15.682-35.027-35.027-35.027H85.756c-19.345 0-35.027 15.682-35.027 35.027s15.682 35.027 35.027 35.027z" opacity="1" data-original="#fae2c0"></path><path fill="#FDD79B" d="M130.469 295.404c0-19.345 15.682-35.027 35.027-35.027h-79.74c-19.345 0-35.027 15.682-35.027 35.026 0 19.345 15.682 35.027 35.027 35.027h79.739c-19.344.001-35.026-15.681-35.026-35.026z" opacity="1" data-original="#fdd79b"></path><path fill="#FCCD7F" d="M130.469 225.351c0-19.345 15.682-35.027 35.027-35.027h-79.74c-19.345 0-35.027 15.682-35.027 35.027s15.682 35.027 35.027 35.027h79.739c-19.344 0-35.026-15.682-35.026-35.027z" opacity="1" data-original="#fccd7f"></path><path fill="#FDD79B" d="M130.469 155.298c0-19.345 15.682-35.027 35.027-35.027h-79.74c-19.345 0-35.027 15.682-35.027 35.027s15.682 35.026 35.027 35.026h79.739c-19.344 0-35.026-15.681-35.026-35.026z" opacity="1" data-original="#fdd79b"></path><circle cx="336.649" cy="72.754" r="47.517" fill="#EE6161" opacity="1" data-original="#ee6161"></circle><path fill="#FDD79B" d="M124.118 120.271a40.148 40.148 0 0 0 5.906 7.844c5.817 6.027 13.445 10.049 21.617 11.526v50.684h76.917v-44.903c0-2.84 2.31-5.15 5.15-5.15h11.428c15.013 0 28.068-7.995 34.988-20H124.118z" opacity="1" data-original="#fdd79b"></path><path fill="#FCCD7F" d="M151.641 190.324v21.679c0 21.206 17.252 38.458 38.458 38.458s38.458-17.252 38.458-38.458v-21.679z" opacity="1" data-original="#fccd7f"></path><path fill="#FEDF30" d="M245.609 80.719h-86.488c-10.723 0-19.856 8.338-20.237 19.055-.4 11.251 8.602 20.497 19.763 20.497h12.993v91.732c0 10.194 8.264 18.459 18.459 18.459 10.194 0 18.459-8.264 18.459-18.459V145.421c0-13.89 11.26-25.15 25.15-25.15h11.428c10.723 0 19.856-8.339 20.237-19.055.399-11.251-8.602-20.497-19.764-20.497z" opacity="1" data-original="#fedf30"></path><path d="M501.966 392.984h-41.524c6.322-7.424 10.149-17.034 10.149-27.526 0-14.515-7.315-27.35-18.447-35.027 11.132-7.677 18.447-20.511 18.447-35.026 0-14.516-7.315-27.35-18.448-35.027 11.132-7.677 18.448-20.511 18.448-35.027 0-14.515-7.315-27.349-18.447-35.026 11.132-7.677 18.447-20.511 18.447-35.026 0-23.449-19.078-42.527-42.527-42.527h-10.967c-4.143 0-7.5 3.358-7.5 7.5s3.357 7.5 7.5 7.5h10.967c15.179 0 27.527 12.349 27.527 27.527s-12.349 27.526-27.527 27.526H238.558a7.5 7.5 0 0 0 0 15h189.506c15.179 0 27.527 12.349 27.527 27.527s-12.349 27.526-27.527 27.526H148.968a7.5 7.5 0 0 0 0 15h115.456v73.941c0 12.87 10.471 23.34 23.34 23.34s23.34-10.47 23.34-23.34v-3.888h18.046v67.188c0 14.267 11.607 25.875 25.874 25.875 14.268 0 25.875-11.607 25.875-25.875v-23.68c0-4.142-3.357-7.5-7.5-7.5s-7.5 3.358-7.5 7.5v23.68c0 5.996-4.879 10.875-10.875 10.875s-10.874-4.878-10.874-10.875v-99.742c0-13.246-10.776-24.023-24.022-24.023s-24.023 10.777-24.023 24.023v36.442c0 4.599-3.741 8.34-8.34 8.34s-8.34-3.741-8.34-8.34v-73.941H365.9v81.599c0 4.142 3.357 7.5 7.5 7.5s7.5-3.358 7.5-7.5v-81.599h47.165c15.179 0 27.527 12.349 27.527 27.527s-12.349 27.526-27.527 27.526H403.4c-4.143 0-7.5 3.358-7.5 7.5s3.357 7.5 7.5 7.5h24.665c15.179 0 27.527 12.349 27.527 27.527s-12.349 27.526-27.527 27.526H403.4c-4.143 0-7.5 3.358-7.5 7.5s3.357 7.5 7.5 7.5h94.204c-2.076 19.667-18.761 35.042-38.97 35.042H54.187c-20.208 0-36.893-15.375-38.969-35.042H122.93a7.5 7.5 0 0 0 0-15H85.756c-15.178 0-27.526-12.348-27.526-27.526s12.348-27.527 27.526-27.527h58.793v63.776c0 14.541 11.83 26.37 26.37 26.37 14.541 0 26.371-11.83 26.371-26.37v-63.776h44.634a7.5 7.5 0 0 0 0-15H85.756c-15.178 0-27.526-12.348-27.526-27.526s12.348-27.527 27.526-27.527h32.647a7.5 7.5 0 0 0 0-15H85.756c-15.178 0-27.526-12.349-27.526-27.527s12.348-27.526 27.526-27.526h55.884a7.5 7.5 0 0 0 0-15H85.756c-15.178 0-27.526-12.348-27.526-27.526s12.348-27.527 27.526-27.527h78.384v84.232c0 14.313 11.645 25.958 25.958 25.958s25.958-11.645 25.958-25.958v-66.582c0-9.732 7.917-17.65 17.65-17.65h151.427c4.143 0 7.5-3.358 7.5-7.5s-3.357-7.5-7.5-7.5h-10.814c10.661-10.038 17.346-24.253 17.346-40.018 0-11.76-3.721-22.661-10.031-31.614l2.985-3.274a28.043 28.043 0 0 1 20.679-9.129h.651c4.143 0 7.5-3.358 7.5-7.5s-3.357-7.5-7.5-7.5h-.649a43.077 43.077 0 0 0-31.763 14.023l-2.156 2.364c-9.479-7.737-21.571-12.387-34.732-12.387-30.337 0-55.018 24.681-55.018 55.017 0 15.759 6.667 29.981 17.322 40.018h-28.997a26.92 26.92 0 0 0 2.912-11.289c.266-7.477-2.444-14.553-7.631-19.927-5.188-5.375-12.159-8.336-19.628-8.336h-86.488c-15.027 0-27.208 11.547-27.732 26.289a27.08 27.08 0 0 0 2.92 13.264H85.756c-23.449 0-42.526 19.078-42.526 42.527 0 14.515 7.315 27.35 18.447 35.026-11.132 7.677-18.447 20.511-18.447 35.027s7.315 27.35 18.447 35.026c-11.132 7.677-18.447 20.511-18.447 35.027s7.315 27.35 18.447 35.026c-11.132 7.677-18.447 20.511-18.447 35.027 0 10.492 3.827 20.102 10.149 27.526H10.855C4.87 392.984 0 397.854 0 403.839c0 29.879 24.308 54.187 54.187 54.187h61.311c1.238 22.848 20.214 41.058 43.366 41.058h195.093c23.152 0 42.127-18.209 43.365-41.058h61.311c29.879 0 54.188-24.308 54.188-54.187-.001-5.985-4.87-10.855-10.855-10.855zm-181.839-96.63c4.975 0 9.022 4.048 9.022 9.023v17.554h-18.046v-17.554c.001-4.975 4.048-9.023 9.024-9.023zM182.29 401.707c0 6.27-5.101 11.37-11.371 11.37s-11.37-5.101-11.37-11.37v-63.776h22.741zM296.632 72.754c0-22.065 17.952-40.017 40.018-40.017 9.273 0 17.813 3.179 24.606 8.494l-12.092 13.263a7.5 7.5 0 0 0 11.084 10.107l10.948-12.008a39.756 39.756 0 0 1 5.472 20.162c0 22.066-17.952 40.018-40.018 40.018s-40.018-17.953-40.018-40.019zm-137.51 15.465h86.488c3.362 0 6.5 1.333 8.835 3.752 2.334 2.418 3.553 5.606 3.434 8.978-.231 6.519-5.948 11.822-12.742 11.822h-11.428c-18.003 0-32.65 14.647-32.65 32.65v66.582c0 6.042-4.916 10.958-10.958 10.958s-10.958-4.916-10.958-10.958v-84.232h3.275a7.5 7.5 0 0 0 0-15H158.65c-3.362 0-6.5-1.333-8.835-3.753-2.333-2.418-3.552-5.606-3.433-8.978.229-6.518 5.945-11.821 12.74-11.821zm194.835 395.865H158.864c-14.877 0-27.115-11.488-28.327-26.058h251.746c-1.212 14.57-13.449 26.058-28.326 26.058z" fill="#000000" opacity="1" data-original="#000000"></path><path d="M212.29 400.484a7.5 7.5 0 0 0 7.5 7.5h86.859c4.143 0 7.5-3.358 7.5-7.5s-3.357-7.5-7.5-7.5H219.79a7.5 7.5 0 0 0-7.5 7.5z" fill="#000000" opacity="1" data-original="#000000"></path></g></svg>