<svg xmlns="http://www.w3.org/2000/svg" version="1.1" xmlns:xlink="http://www.w3.org/1999/xlink" width="512" height="512" x="0" y="0" viewBox="0 0 512 512" style="enable-background:new 0 0 512 512" xml:space="preserve"><g><path d="M348.511 121.223c-9.929 1.334-24.936 10.927-25.507 22.16-.941 18.511 38.958 24.447 51.442 31.863 22.6 13.426 41.529 34.158 51.076 58.616 10.665 27.32 9.349 54.683 7.974 83.72-.379 7.999-.587 22.135-5.407 28.58-12.219 16.339-39.44 10.203-56.894 11.964-64.782 6.536-129.305 12.552-194.251 10.442-17.726-.576-35.524.934-53.256.039-8.908-.449-111.571-11.094-99.446 11.327 6.68 12.352 25.064 11.659 37.317 12.706 22.571 1.929 45.652.194 68.223-.456 53.864-1.552 108.609-4.471 162.317-8.732 42.85-3.399 85.846-5.804 128.71-7.814 21.131-.991 55.457 5.866 60.147-21.214 4.064-23.466-6.495-47.423-4.091-71.024 1.754-17.217 14.911-20.245 23.338-33.003 7.018-10.625 7.31-22.839 3.69-34.789-5.842-19.29-26.251-32.25-40.723-44.701-21.19-18.231-48.216-36.691-74.037-47.584-11.614-4.898-31.913-10.707-40.622-2.1z" style="" fill="#FF7A49" data-original="#ff7a49"></path><path d="M501.636 227.347c-1.204-4.927-6.084-7.094-10.704-6.54-.053-.174-.083-.333-.142-.512-3.411-10.245-16.72-7.983-24.326-4.523-.963.438-1.863.925-2.729 1.439-15.256 2.395-27.602 19.39-26.905 34.336a8.62 8.62 0 0 0 .755 3.154c-2.402 5.806-3.415 11.76-2.043 17.199-3.454 18.165-5.041 37.491-.02 54.801-5.784 8.504-8.923 19.605-16.402 26.824-6.684 6.451-16.329 9.541-25.118 11.81-6.325 1.633-17.206 2.851-22.278 7.277-10.517 9.178 9.518 12.478 15.709 12.1 24.158-1.477 54.537-.498 76.84-11.282 16.322-7.892 18.758-35.353 13.842-50.451a9.153 9.153 0 0 0-.718-1.613c.535-9.255-.605-18.15-4.969-24.622a6.797 6.797 0 0 0-.923-1.079c.081-1.055.166-2.109.234-3.164 1.105-8.333 2.1-16.666 2.311-25.1 9.962-3.412 18.576-15.518 21.168-25.964a7.954 7.954 0 0 0 4.796-3.36c2.268-3.473 2.609-6.691 1.622-10.73z" style="" fill="#E8643F" data-original="#e8643f"></path><path d="M8.659 263.772c7.157 13.575 10.785 35.051 14.112 50.034 3.667 16.515 3.865 34.672 7.744 50.835 65.313 3.654 130.886.423 196.29 2.031 39.943.982 79.487-1.999 119.673-3.857 22.915-1.059 75.922 3.737 83.007-25.316 3.381-13.866 2.133-32.752.212-46.583-1.12-8.062-2.328-18.199-7.271-24.841-13.472-18.101-47.862-26.287-67.76-31.257-37.831-9.45-74.551-18.047-113.822-17.313-36.863.689-73.576 4.809-110.14 9.237-26.376 3.194-51.729 5.967-77.594 12.272-7.063 1.722-15.381 2.88-22 6.025-5.259 2.499-9.852 8.926-14.799 9.96-.348-.852-.696-1.704-7.652 8.773z" style="" fill="#FFD45C" data-original="#ffd45c"></path><path d="M431.359 272.137c-2.234-8.592-14.397-6.301-14.922 2.019a75.37 75.37 0 0 0-.123 4.19c-14.301-3.87-29.657-1.39-41.886 7.228-7.415 5.226-15.693 12.038-25.075 12.938-9.777.938-15.75-6.823-23.934-10.456-16.259-7.217-29.143 5.596-33.83 20.437-.611 1.936-2.186 8.877-2.837 15.943-.131.17-.237.35-.38.516-2.282 2.656-5.01 4.705-7.797 6.773-3.826 2.839-8.43 5.564-11.786 9.178-9.016-9.524-18.711-15.961-21.53-29.777-.309-1.516-.856-4.923-1.774-8.616 2.312-2.573 3.247-6.304 2.044-9.827-2.372-6.951-10.61-8.68-17.068-8.925-3.46-.131-6.717.485-10.139.851.915-.098-.837-.098-1.557.119-.703-.901-2.601-2.761-3.243-3.451-8.311-8.946-19.945-14.461-31.105-6.926-8.319 5.616-12.974 15.68-19.174 23.32-.015.018-.232.242-.521.54-.723-3.082-2.137-6.715-2.711-8.587-2.966-9.68-8.029-19.457-17.362-24.309-11.089-5.764-21.859-.934-32.371 3.34-12.883 5.237-27.431 4.884-41.085 3.721-15.894-1.354-31.62-6.63-47.482-3.371-6.787 1.394-6.324 9.958-1.744 13.345 12.808 9.473 30.432 11.508 45.906 13.467 14.301 1.811 30.403 3.196 44.393-1.165 5.919-1.845 11.17-5.247 16.921-7.455 5.489-2.107 6.848.249 8.961 5.524 3.688 9.206 2.755 20.224 10.156 27.774 8.816 8.993 21.994 6.257 30.504-1.534 4.477-4.1 7.877-9.266 11.478-14.109 1.397-1.878 2.77-3.775 4.253-5.592.6-.788 1.273-1.514 1.919-2.262 6.166 9.818 17.679 12.633 28.312 10.02 1.377-.339 2.717-.779 4.046-1.25-.036.486-.073.955-.117 1.383-.808 7.969-.039 16.235 2.909 23.719 1.797 4.561 4.467 8.81 7.777 12.35-6.139.287-12.277.544-18.415.726-30.504.902-60.992-.529-91.451-2.069-16.801-.849-33.628-1.619-50.453-1.129-13.852.404-36.108-1.143-46.669 9.069-4.638 4.485-1.724 10.939 3.45 13.066 7.02 2.887 14.406.563 21.711-.219 8.337-.893 16.721-1.316 25.102-1.469 16.837-.306 33.665.565 50.473 1.435 32.912 1.703 65.89 3.099 98.838 1.53 33.734-1.606 67.663-3.483 101.35-5.929 15.336-1.113 30.311-4.627 45.569-5.866 11.918-.968 24.186 1.18 35.181-4.815 26.604-14.505 23.714-50.699 17.288-75.413zm-34.365 59.895c-12.474 1.176-24.552.816-37.041 2.952-14.895 2.548-29.975 3.327-45.055 4.023-4.96.229-9.922.514-14.883.79.199-.277.389-.57.584-.856 5.648-5.652 7.967-17.674 10.609-23.503.688-1.519 2.388-6.747 4.26-7.242 1.385-.367 4.713 2.698 6.322 3.883 6.126 4.514 12.341 7.966 19.956 9.212 16.759 2.742 31.402-6.187 44.655-15.232 3.209-2.191 6.493-4.768 10.393-5.558 3.948-.801 8.024.51 11.963.585 2.678.051 5.227-.142 7.592-.693-.652 15.257-4.145 30.205-19.355 31.639z" style="" fill="#FFBE4A" data-original="#ffbe4a"></path><path d="M51.141 226.955c11.796-7.46 27.267-9.972 40.306-14.577 19.612-6.926 40.594-11.954 61.177-15.63 33.267-5.941 66.133-12.478 98.692-21.711 17.21-4.88 33.745-11.483 51.471-14.164 18.456-2.791 26.526-2.137 43.178 5.541 24.572 11.329 117.357 70.029 79.008 104.223-8.7 7.756-25.347 4.319-36.345 7.3-14.39 3.9-25.542 13.98-39.411 17.748-11.615 3.156-19.029-1.021-28.059-7.574-7.669-5.566-15.425-12.52-23.635-4.047-11.29 11.651-5.356 53.527-27.417 55.324-18.442 1.503-18.602-29.664-21.59-40.582-1.816-6.633-5.522-19.625-14.231-20.023-7.924-.362-13.404 10.618-21.716 10.734-11.589.161-12.212-19.968-24.804-10.874-10.844 7.833-6.747 32.625-25.702 29.624-17.594-2.785-15.597-31.094-31.625-38.12-17.735-7.775-37.458 5.115-55.288 6.284-9.027.592-17.045-2.635-25.825-3.707-10.964-1.339-21.938-1.361-32.43-5.367-7.891-3.013-12.78-6.23-10.942-14.659 3.351-15.357 34.53-19.642 45.188-25.743z" style="" fill="#F74F68" data-original="#f74f68"></path><path d="M422.466 239.531c-7.13-4.168-16.076-3.24-23.889-2.243-28.543 3.641-56.877 9.573-85.717 10.508-28.468.924-56.32-5.146-84.608-7.011-16.778-1.107-39.986-1.1-57.725 6.471-7.737-1.325-15.647-1.997-23.267-1.113-9.544-2.846-21.503 1.295-30.599 3.932-11.415 3.309-22.681 7.502-34.453 9.419-12.824 2.089-26.163.5-38.81-1.948-10.051-1.945-22.023-7.855-32.16-5.665-2.604.563-4.411 4.339-2.689 6.609 6.552 8.637 20.603 11.531 30.735 13.978 12.423 3 25.935 4.681 38.703 3.757 12.647-.916 24.781-4.583 36.906-8.04 6.771-1.931 14.473-2.883 21.811-4.427.13.115.252.237.379.355-.064 1.796.733 3.545 2.797 4.498.102.047.204.088.306.134 1.538 3.926 2.079 8.703 3.019 12.665 2.755 11.621 7.309 22.01 19.524 25.884 4.584 1.454 8.57-1.105 11.202-4.559 5.517-7.24 6.596-16.338 9.973-24.377 3.323-.652 6.633-2.3 9.724-3.946a28.839 28.839 0 0 0 3.414-1.539c1.505 3.348 3.672 6.484 6.448 9.278 8.658 8.713 19.46 6.869 29.502 1.696 5.092-2.623 6.18-3.142 11.336 1.249 3.964 3.375 5.475 7.859 6.079 12.962.987 8.337.006 16.921 2.63 25.053 2.932 9.083 11.836 15.309 21.245 10.646 8.222-4.076 10.301-14.104 11.477-22.35 1.373-9.63 4.792-20.238 12.835-26.63 9.373-7.448 20.711 1.102 29.903 4.913 12.445 5.16 24.577 4.922 35.6-3.304 6.007-4.483 10.919-9.683 17.741-13.028.481-.236.967-.458 1.451-.686 12.764 2.498 25.185.701 38.728-1.675 3.658-.642 6.545-4.181 7.543-7.543 2.639-8.875 1.641-18.816-7.094-23.923z" style="" fill="#E03253" data-original="#e03253"></path><path d="M354.677 265.532c-.156-11.065-8.462-20.465-7.91-31.123.57-11.013 7.193-20.105 5.579-31.615-1.182-8.43-6.727-16.247-14.408-20.011a4.986 4.986 0 0 0-1.506-.448c-5.39-5.159-12.183-8.832-19.237-11.574-9.952-3.869-25.304-9.696-35.962-6.676-1.426.404-2.389 1.406-2.876 2.598-2.902-.685-5.764-.985-8.671.264-1.729.743-1.675 3.232-.567 4.402 3.547 3.747 10.083 3.749 14.969 4.498l1.689.258c6.663 3.098 15.09 4.092 21.537 6.1 9.524 2.965 20.202 7.434 24.539 17.134 5.901 13.196-2.812 26.355-4.062 39.525-1.477 15.557 11.298 26.756 8.101 42.449-.531 2.607-.194 5.905 2.044 7.734 2.693 2.201 4.243 2.799 7.734 2.045 2.518-.544 5.045-3.004 5.552-5.552.191-.961.363-1.922.515-2.883 2.652-5.031 3.018-11.605 2.94-17.125zM252.042 225.44c-11.11-23.914-33.39-34.962-58.489-37.704-1.27-.697-2.827-.987-4.007-.495l-.872.364c-4.991 2.081-5.993 9.472 0 11.195 8.817 2.534 17.454 4.874 25.241 8.397 3.507 5.71 10.271 10.155 14.773 14.437 3.049 2.9 7.072 6.367 10.726 10.205 3.642 7.728 6.227 16.279 7.014 24.735.395 4.241.527 8.672.309 12.929-.197 3.843-2.131 7.532-1.819 11.261.108 1.296 1.098 2.71 2.581 2.581 9.566-.832 13.381-15.234 13.443-23.097.094-11.884-3.958-24.169-8.9-34.808zM135.395 231.919c-4.595-12.443-15.078-20.118-28.249-21.088-1.255-.092-2.301.17-3.186.635a9.503 9.503 0 0 0-.722.287c-.67.309-1.236 1.069-1.507 1.859-2.253 3.91-.614 10.526 4.824 10.489.667.135 1.312.295 1.942.471 3.712 2.873 8.052 5.411 10.758 8.402 2.466 2.725 4.371 5.587 5.955 8.555.09.247.186.487.273.737 2.338 6.736.643 19.436 7.019 23.491.969.616 2.459.643 3.425 0 8.393-5.584 2.305-26.154-.532-33.838z" style="" fill="#FFFFFF" data-original="#ffffff"></path><path d="M446.898 154.207c-19.779-13.794-39.187-31.592-62.424-39.286-20.604-6.823-45.596-3.596-59.063 14.794-2.462 3.362-4.23 6.972-5.183 10.724-2.396 5.023-2.663 10.302.724 15.13-20.014 3.922-40.494 4.939-60.528 8.81-23.877 4.613-47.535 10.66-70.966 17.137-47.48 13.126-95.72 23.974-142.692 38.848-14.959 4.737-52.098 13.96-46.121 36.572a19.026 19.026 0 0 0 3.03 6.414c1.601 6.834 4.288 13.33 6.525 20.09 3.694 11.162 6.297 23.026 8.254 34.607 1.418 8.397 2.975 16.796 4.3 25.208.707 4.488 1.309 9.056 1.217 13.61-.071 3.523-1.031 6.698-.182 10.156.004.016.014.028.018.044-1.274.879-2.359 1.995-3.144 3.423-3.981 7.249 1.36 14.573 7.156 18.657 19.484 13.727 50.283 11.521 72.738 10.325 63.24-3.368 126.377-7.718 189.676-10.224 32.121-1.272 64.264-1.852 96.4-2.606 15.752-.37 31.493-.849 47.236-1.502 9-.373 18.188-.751 26.944-3.044 7.749-2.03 15.839-5.722 20.051-12.874 5.692-9.664 4.357-22.581 3.338-33.247-1.381-14.45-4.574-28.509-4.198-43.106.394-15.282 5.114-23.803 17.27-32.798 44.55-32.962-23.676-87.24-50.376-105.862zm-117.51-12.356c3.061-7.512 10.441-13.475 18.027-16.51 11.112-4.446 24.344-3.177 35.606-.004 22.031 6.208 39.871 22.784 57.65 36.412 19.86 15.223 37.961 31.265 51.085 52.802-11.283-5.732-26.879-6.905-35.993-3.121-9.999 4.151-18.528 13.673-22.933 24.549a72.068 72.068 0 0 0-5.246-11.726c-11.893-21.237-31.354-39.594-51.757-52.545-11.398-7.235-23.621-11.978-35.966-17.224-4.62-1.963-10.569-4.22-10.707-10.054-.021-.874.069-1.732.234-2.579zm-5.001 17.365a27.484 27.484 0 0 0 3.589 2.596c10.831 6.542 23.676 9.902 34.926 15.808 12.289 6.452 23.57 14.295 33.764 23.727 9.812 9.078 18.848 19.374 24.602 31.552 4.7 9.946 4.394 20.638 3.886 31.351-6.838 6.45-16.704 1.577-24.991 1.085-8.094-.481-15.655 1.762-22.552 5.942-6.768 4.103-12.231 9.902-18.761 14.303-.556.375-1.102.704-1.643 1.007 2.314-5.423 4.151-10.982 3.911-17.022-.322-8.124-4.328-15.25-7.393-22.579-4.501-10.76-3.259-19.33.689-29.905 2.285-6.123 3.879-11.922 2.081-18.402-3.581-12.91-15.955-22.17-27.712-27.158-7.263-3.081-15.938-5.789-24.668-7.291 6.812-1.438 13.584-3.047 20.272-5.014zm-34.635 7.853c10.057 2.471 20.631 3.239 30.499 6.713 12.972 4.568 32.124 15.387 31.38 31.632-.274 5.983-3.711 11.381-5.495 16.975-1.93 6.052-2.534 12.145-1.166 18.383 1.476 6.731 5.073 12.681 7.311 19.14 3.704 10.689.789 18.678-3.737 28.472-.059.126-.087.25-.13.375-3.765-.208-7.452-1.736-11.516-3.67 2.634-3.981 4.02-8.825 3.579-13.631-.695-7.58-6.149-12.216-9.156-18.783-7.722-16.868 12.249-33.865 4.781-51.775-5.263-12.623-19.803-18.312-31.829-22.322-11.469-3.824-22.854-6.258-34.463-7.678 6.63-1.354 13.29-2.575 19.942-3.831zm-32.447 6.592c.632-.154 1.268-.285 1.901-.434 1.752.203 3.521.396 5.307.698 7.995 1.352 16.001 3.336 23.827 5.444 13.205 3.556 31.804 8.019 40.091 19.918 10.449 15.002-5.056 29.884-5.388 45.137-.122 5.616 1.886 10.301 4.769 15.022 1.948 3.191 4.666 6.424 5.607 10.109 1.242 4.866-.54 8.737-2.594 12.654-10.097-4.598-21.562-8.249-32.114-3.193-12.38 5.932-17.078 19.373-18.771 32.008-.692 5.164-.715 12.592-4.103 16.91-4.69 5.977-12.307 3.369-15.769-2.203-6.189-9.96-5.311-22.771-7.9-33.917 8.329-10.873 11.319-27.509 11.142-40.698-.186-13.906-4.013-27.809-12.658-38.861-10.666-13.637-26.652-21.778-43.526-24.919 16.614-4.96 33.331-9.573 50.179-13.675zm-71.962 20.367c4.367-1.39 8.749-2.732 13.13-4.075 17.547 3.259 34.857 9.667 46.525 23.618 8.423 10.072 12.207 22.945 12.503 35.946.161 7.097-.807 14.146-2.735 20.976-1.343 4.757-3.503 9.209-5.356 13.753-1.294-2.32-2.908-4.198-4.848-5.479 9.625-21.862-3.335-50.33-20.443-64.444-11.896-9.815-26.849-16.414-42.331-19.193 1.183-.372 2.372-.725 3.555-1.102zm-12.271 3.802c15.064 3.129 29.745 8.085 42.391 17.093 9.981 7.11 18.225 16.802 22.373 28.445 4.204 11.802 2.397 22.024.804 33.447-2.193-.127-4.619.283-7.272 1.318-3.616 1.411-6.736 3.654-9.975 5.746-3.448 2.228-3.101 2.108-7.851 1.414-5.636-.824-4.869-1.554-7.892-5.649-2.484-3.365-4.944-6.097-9.284-6.809-13.221-2.169-18.479 19.461-24.465 27.381-5.736 7.589-10.677 4.393-15.624-2.928-6.084-9.004-6.109-21.89-13.977-29.687 6.043-20.793-.689-45.185-18.832-55.463 16.579-4.614 33.141-9.288 49.604-14.308zm-55.553 15.964c6.752 3.794 12.749 8.045 16.338 16.193 2.841 6.45 5.572 15.101 5.182 22.196-.23 4.19-1.603 7.854-1.978 11.665a20.434 20.434 0 0 0-6.368-1.942c2.232-9.12-3.923-21.004-9.224-27.415-6.485-7.843-14.599-12.55-23.507-15.242 6.515-1.831 13.036-3.642 19.557-5.455zM14.571 248.026c8.803-6.619 20.399-9.776 30.751-13.113 15.251-4.917 30.622-9.414 46.031-13.783l.128.037c7.661 2.414 15.94 7.224 21.767 12.658 8.876 8.278 11.003 17.294 11.065 28.037-9.952 1.065-20.287 6.738-29.483 8.482-18.764 3.557-39.328.305-58.192-1.266-7.671-.639-17.32-1.224-23.3-6.755-5.725-5.295-4.323-10.12 1.233-14.297zm3.958 39.605c-2.139-6.157-4.916-12.055-7.527-18.016 5.751 3.214 12.855 4.669 19.145 5.495 19.032 2.499 39.076 4.393 58.245 4.275 8.686-.054 16.449-2.121 24.817-4.221 9.942-2.494 19.502-4.454 24.409 6.295 5.43 11.896 6.671 24.706 19.147 31.861 18.46 10.587 23.805-14.966 28.576-26.997 1.215-3.062 2.82-7.877 6.061-9.462 7.691-3.761 9.536 8.106 12.955 12.408 3.532 4.444 9.139 6.326 14.701 5.23 6.317-1.245 17.326-13.089 21.762-5.473 2.845 4.885 2.202 12.73 2.789 18.271.737 6.946 1.637 14.012 4.342 20.505 4.787 11.494 15.718 18.695 28.284 14.527 14.291-4.741 14.645-21.069 16.783-33.417 1.461-8.436 5.881-18.351 15.377-19.587 8.735-1.137 17.658 4.563 25.185 8.135 18.809 8.926 29.722-.076 44.292-11.525 10.401-8.173 18.884-9.222 31.578-7.186 5.704.915 10.684 1.108 15.336-.315.005.225.003.452.011.677.739 22.929 13.247 65.972-18.569 73.333-12.335 2.854-25.757 2.49-38.334 3.475-15.89 1.246-31.765 2.688-47.627 4.259-32.388 3.208-64.532 5.317-97.097 5.182-31.829-.131-63.68-.106-95.505-.527-29.847-.394-59.817-1.788-89.663-1.021-.939.024-1.938.065-2.962.134 1.219-4.64.237-10.441-.354-14.624-1.208-8.552-3.338-16.971-5.501-25.323-3.155-12.184-6.524-24.475-10.656-36.368zm476.65-42.384c-7.064 7.35-16.491 10.081-21.306 19.698-10.434 20.838-1.191 47.839 1.256 69.382 1.15 10.125 2.212 24.254-6.634 31.239-6.861 5.418-17.128 6.193-25.481 6.679-54.538 3.172-109.318 2.523-163.897 5.175-56.917 2.765-113.806 5.563-170.684 9.018-22.951 1.395-48.058 2.9-70.053-5.053-5.051-1.826-15.692-8.967-4.33-11.545 3.395-.77 7.45-.099 10.912-.044 14.682.235 29.358.392 44.038.783 57.391 1.528 115.206 3.86 172.603 1.822 28.141-.999 56.189-4.183 84.304-5.825 13.447-.785 26.902-1.467 40.363-1.962 9.433-.347 19.266-.288 28.322-3.3 25.084-8.341 27.183-36.21 25.095-58.904-1.359-14.775-1.41-29.455-2.5-44.217-.177-2.39-.447-4.726-.774-7.036 3.5-12.593 10.671-24.553 21.632-31.343 12.632-7.825 30.595-3.619 40.025 7.304 2.129 6.256 2.305 12.722-2.891 18.129z" fill="#000000" opacity="1" data-original="#000000"></path></g></svg>